<svg id="Component_216_1" data-name="Component 216 – 1" xmlns="http://www.w3.org/2000/svg" width="24" height="24" viewBox="0 0 24 24">
  <g id="icon-24-_drop_down" data-name="icon-24- drop down" transform="translate(24 24) rotate(180)">
    <rect id="Bounding_box" data-name="Bounding box" width="24" height="24" fill="rgba(255,255,255,0)"/>
    <path id="Icon_color" data-name="Icon color" d="M18.082.148a.5.5,0,0,1,.71,0l1.06,1.06a.48.48,0,0,1,0,.7l-9.19,9.19a.75.75,0,0,1-.53.22h-.26a.75.75,0,0,1-.53-.22L.152,1.908a.48.48,0,0,1,0-.7L1.212.148a.5.5,0,0,1,.71,0L10,8.228Z" transform="translate(1.999 6.682)"/>
  </g>
</svg>
