<svg id="dolar_icon" data-name="dolar icon" xmlns="http://www.w3.org/2000/svg" width="24" height="24" viewBox="0 0 24 24">
  <rect id="Rectangle_7210" data-name="Rectangle 7210" width="24" height="24" fill="rgba(255,255,255,0)"/>
  <g id="recurring-subscription-icon" transform="translate(1.621 2.715)">
    <path id="Path_857" data-name="Path 857" d="M19.51,11.015A9.289,9.289,0,0,1,1.4,11.626l1.159-.3a8.088,8.088,0,0,0,15.729-.313H17.047L18.9,8.751l1.857,2.262H19.51Zm-9.154.656V9.55a3.232,3.232,0,0,1-1.639-.857,2,2,0,0,1-.524-1.4,1.852,1.852,0,0,1,.591-1.4,2.511,2.511,0,0,1,1.571-.651v-.5h.835v.5a2.658,2.658,0,0,1,1.46.551,2.05,2.05,0,0,1,.691,1.215l-1.458.166a1.066,1.066,0,0,0-.693-.811V8.35a3.893,3.893,0,0,1,1.884.852,1.865,1.865,0,0,1,.5,1.345,2.093,2.093,0,0,1-.63,1.544,2.98,2.98,0,0,1-1.756.782v.946h-.835v-.934a2.831,2.831,0,0,1-1.607-.647A2.533,2.533,0,0,1,7.958,10.7l1.492-.155a1.579,1.579,0,0,0,.345.7,1.535,1.535,0,0,0,.561.424Zm0-5.317a1.077,1.077,0,0,0-.532.35.83.83,0,0,0-.2.537.792.792,0,0,0,.179.5,1.24,1.24,0,0,0,.551.37V6.353Zm.835,5.4a1.293,1.293,0,0,0,.7-.363.915.915,0,0,0,.272-.662.82.82,0,0,0-.23-.583,1.492,1.492,0,0,0-.747-.377v1.985Zm-9.93-4.2a9.287,9.287,0,0,1,17.92-1.254l-.568.193-.568.193c-.015-.047-.032-.095-.049-.14A8.089,8.089,0,0,0,2.484,7.559H3.716L1.857,9.822,0,7.559Z"/>
  </g>
</svg>
