<svg id="hourglass_half" xmlns="http://www.w3.org/2000/svg" width="24" height="24" viewBox="0 0 24 24">
  <rect id="Bounding_box" data-name="Bounding box" width="24" height="24" fill="rgba(255,255,255,0)"/>
  <path id="Icon_color" data-name="Icon color" d="M13.5,20H.5a.5.5,0,0,1-.5-.5v-1A.5.5,0,0,1,.5,18H1V15a2.982,2.982,0,0,1,1.13-2.38L5.4,10,2.13,7.38A3.022,3.022,0,0,1,1,5V2H.5A.5.5,0,0,1,0,1.5V.5A.5.5,0,0,1,.5,0h13a.5.5,0,0,1,.5.5v1a.5.5,0,0,1-.5.5H13V5a2.98,2.98,0,0,1-1.13,2.38L8.6,10l3.27,2.66A2.984,2.984,0,0,1,13,15v3h.5a.5.5,0,0,1,.5.5v1A.5.5,0,0,1,13.5,20ZM7,11.28H7L3.38,14.22A1,1,0,0,0,3,15v1h8V15a1,1,0,0,0-.38-.82L7,11.28ZM3,2V5h8V2Z" transform="translate(5 2)" fill="#0ab3d0"/>
</svg>
