<svg id="icon-24-uplad" xmlns="http://www.w3.org/2000/svg" width="24" height="24" viewBox="0 0 24 24">
  <rect id="Bounding_box" data-name="Bounding box" width="24" height="24" fill="rgba(255,255,255,0)"/>
  <path id="Icon_color" data-name="Icon color" d="M16.5,16H5A5,5,0,1,1,5,6a6,6,0,0,1,11.912-.979A5.5,5.5,0,0,1,16.5,16ZM11,4a.5.5,0,0,0-.354.148L7.112,7.684a.5.5,0,0,0,0,.707l.207.207a.493.493,0,0,0,.353.148H9V12.5a.5.5,0,0,0,.5.5h3a.5.5,0,0,0,.5-.5V8.745h1.328a.494.494,0,0,0,.354-.148l.207-.207a.5.5,0,0,0,0-.707L11.354,4.148A.5.5,0,0,0,11,4Z" transform="translate(1 4)"/>
</svg>
