<svg id="icon-24-_marketing_campain" data-name="icon-24- marketing campain" xmlns="http://www.w3.org/2000/svg" width="24" height="24" viewBox="0 0 24 24">
  <rect id="Rectangle_7078" data-name="Rectangle 7078" width="24" height="24" fill="rgba(255,255,255,0)"/>
  <g id="Group_514" data-name="Group 514" transform="translate(-42.358 -43.746)">
    <path id="Path_663" data-name="Path 663" d="M48.667,288.252a.319.319,0,0,0-.51.043l-2.45,3.958a.319.319,0,0,0,.028.374l1.586,1.867-.868.729a.335.335,0,0,1-.47-.04l-.907-1.073a.333.333,0,0,1,.03-.463l.16-.146a.319.319,0,1,0-.429-.471l-.16.146a.968.968,0,0,0-.087,1.345l.907,1.073a.972.972,0,0,0,1.244.2l1.141.6a1.061,1.061,0,0,0,1.1-.056l.524-.354a.319.319,0,0,0,.01-.521l-.587-.429a.319.319,0,1,0-.376.514l.221.162-.149.1a.427.427,0,0,1-.445.021l-.9-.471.659-.553,4.347-1.814a.319.319,0,0,0,.116-.5Zm-.8,5.9-1.492-1.757,2.1-3.4,3.157,3.58Z" transform="translate(0 -230.996)" fill="#02466a"/>
    <path id="Path_664" data-name="Path 664" d="M185.715,307.117a.318.318,0,0,0,.212-.081l.455-.406a.319.319,0,1,0-.424-.475l-.455.406a.319.319,0,0,0,.212.556Z" transform="translate(-134.404 -248.082)" fill="#02466a"/>
    <path id="Path_665" data-name="Path 665" d="M214.924,348.908l-.6.126a.319.319,0,0,0,.066.63.322.322,0,0,0,.066-.007l.6-.126a.319.319,0,0,0-.132-.623Z" transform="translate(-161.733 -288.895)" fill="#02466a"/>
    <path id="Path_666" data-name="Path 666" d="M154.965,271.855a.318.318,0,0,0,.42-.162l.247-.558a.319.319,0,0,0-.583-.258l-.247.558A.319.319,0,0,0,154.965,271.855Z" transform="translate(-105.223 -214.36)" fill="#02466a"/>
    <path id="Path_667" data-name="Path 667" d="M329.166,195.687a4.831,4.831,0,0,0-1.038-1.2.319.319,0,0,0-.407.49,4.191,4.191,0,0,1,.832.935,8.519,8.519,0,0,1-2.874,2.116v-.152a5.227,5.227,0,0,0-1.89-4.03.319.319,0,0,0-.407.49,4.592,4.592,0,0,1,1.661,3.54v.561a4.709,4.709,0,0,0,.022.191.318.318,0,0,0,.414.179,9.2,9.2,0,0,0,3.645-2.575.783.783,0,0,0,.044-.542Z" transform="translate(-265.788 -141.06)" fill="#02466a"/>
    <path id="Path_668" data-name="Path 668" d="M365.745,72.055a2.356,2.356,0,1,1,.475,4.665,2.34,2.34,0,0,1-1.362-.433.319.319,0,0,0-.369.52,2.994,2.994,0,1,0,1.73-5.436,3.008,3.008,0,0,0-.6.061.319.319,0,0,0,.128.624Z" transform="translate(-304.946 -24.418)" fill="#02466a"/>
    <path id="Path_669" data-name="Path 669" d="M244.7,52.2a3.229,3.229,0,1,0-3.229-3.229A3.233,3.233,0,0,0,244.7,52.2Zm0-5.821a2.592,2.592,0,1,1-2.592,2.592A2.595,2.595,0,0,1,244.7,46.384Z" transform="translate(-187.841)" fill="#02466a"/>
    <path id="Path_670" data-name="Path 670" d="M179.381,198.734a6.718,6.718,0,0,1-3.119-.406v-.454a4.592,4.592,0,0,1,1.66-3.54.319.319,0,0,0-.407-.49,5.227,5.227,0,0,0-1.89,4.03v.173A9.231,9.231,0,0,1,172.83,196a4.192,4.192,0,0,1,.887-1.022.319.319,0,0,0-.407-.49,4.828,4.828,0,0,0-1.1,1.306,1.125,1.125,0,0,0,.1.588,9.942,9.942,0,0,0,3.385,2.406,7.351,7.351,0,0,0,3.75.581.319.319,0,1,0-.068-.633Z" transform="translate(-121.797 -141.061)" fill="#02466a"/>
    <path id="Path_671" data-name="Path 671" d="M158.448,77.359a2.974,2.974,0,0,0,1.73-.55.319.319,0,1,0-.369-.52,2.356,2.356,0,1,1-1.362-4.279,2.375,2.375,0,0,1,.475.048.319.319,0,1,0,.128-.624,2.994,2.994,0,1,0-.6,5.926Z" transform="translate(-105.87 -24.42)" fill="#02466a"/>
  </g>
</svg>
