<svg id="icon-24-price" xmlns="http://www.w3.org/2000/svg" width="24" height="24" viewBox="0 0 24 24">
  <rect id="Rectangle_1475" data-name="Rectangle 1475" width="24" height="24" fill="rgba(255,255,255,0)"/>
  <path id="price-tag-us-dollar" d="M9.651,8.474,5.082,4.68,3.537,6.112a8.56,8.56,0,0,0,1.218.526,1.049,1.049,0,0,1,1.577.881,1.042,1.042,0,0,1-.287.759,1.051,1.051,0,0,1-1.48.023.992.992,0,0,1-.329-.731,1.206,1.206,0,0,1,.006-.152,8.892,8.892,0,0,1-1.4-.659L1,8.462l-.1,10.163a.473.473,0,0,0,.466.494l7.8.078a.473.473,0,0,0,.494-.472ZM4.882,10.233H5.893l-.024.636A9.484,9.484,0,0,1,6.984,11l-.231,1.055H5.559a.561.561,0,0,0-.37.088,1.209,1.209,0,0,0-.1.512l.5.056a2.038,2.038,0,0,1,1.261.47,1.32,1.32,0,0,1,.346.947,2.93,2.93,0,0,1-.119.927,1.145,1.145,0,0,1-.342.529,1.951,1.951,0,0,1-1.066.359l-.023.8H4.62l.031-.8a7.505,7.505,0,0,1-1.28-.191l.23-1.088a5.367,5.367,0,0,0,1.385.176,4.613,4.613,0,0,0,.564-.032v-.512l-.493-.056a1.673,1.673,0,0,1-1.274-.557,1.835,1.835,0,0,1-.278-1.058,1.826,1.826,0,0,1,.354-1.25,1.587,1.587,0,0,1,1-.477l.023-.66ZM7.927,5.865c-1.15-3-2.557-4.41-3.8-4.826a2.113,2.113,0,0,0-2.16.407A2.256,2.256,0,0,0,1.3,3.511a3.445,3.445,0,0,0,1.438,2.1L4.756,3.745a.457.457,0,0,1,.6-.016Zm-5.86.371A4.262,4.262,0,0,1,.411,3.671,3.166,3.166,0,0,1,1.35.778,3,3,0,0,1,4.412.18c1.66.555,3.532,2.508,4.854,6.794h0L10.38,7.9a.454.454,0,0,1,.177.36L10.57,18.73A1.374,1.374,0,0,1,9.159,20.1l-7.79-.078A1.376,1.376,0,0,1,0,18.618L.1,8.284a.451.451,0,0,1,.144-.355L2.067,6.237Z" transform="translate(6.583 2.205)" fill="#02466a"/>
</svg>
