<svg id="icon-24-facebook" xmlns="http://www.w3.org/2000/svg" width="32" height="32" viewBox="0 0 32 32">
  <rect id="Rectangle_7230" data-name="Rectangle 7230" width="32" height="32" fill="rgba(255,255,255,0)"/>
  <path id="Path_883" data-name="Path 883" d="M13.947,28h0Zm.1,0h0ZM13.9,28h0Zm.187,0h0Zm-.228,0h0Zm.273,0h0Zm.045,0h0Zm-.371,0h0Zm.416,0h0Zm-.46,0h0Zm.5,0h0Zm-.546,0h0Zm-.051,0h0Zm.642,0h0Zm-.687,0h0Zm.732,0h0Zm.045,0h0Zm-.819,0h0Zm-.039,0h0Zm.9,0h0Zm.045,0h0Zm-1,0h0Zm-.041,0h0Zm1.091,0h0Zm-1.131,0h0Zm1.176,0h0Zm-1.232,0h0Zm1.277,0h0Zm-1.317,0h0Zm1.362,0h0Zm-1.4,0h0Zm1.446,0h0Zm.045,0h0Zm-1.527,0h0Zm1.572,0h0Zm-1.632,0h0Zm-.039,0h0Zm1.716,0h0Zm-1.754,0h0Zm1.8,0h0Zm.045,0h0Zm-1.9,0h0Zm-.039,0h0Zm1.985,0h0Zm-2.024,0h0Zm2.068,0h0Zm-2.121,0h0Zm2.166,0h0Zm.044,0h0Zm-2.251,0h0Zm-.04,0h0Zm2.335,0h0Zm-2.378,0h0Zm2.423,0h0Zm.044,0h0Zm-2.514,0h0Zm-.041,0h0Zm2.6,0h0Zm-3.486-.111a14,14,0,1,1,4.375,0V18.047H19.45L20.07,14H16.188V11.374a2.023,2.023,0,0,1,2.282-2.186h1.765V5.742A21.529,21.529,0,0,0,17.1,5.469c-3.2,0-5.288,1.938-5.288,5.447V14H8.258v4.047h3.555Z" transform="translate(2 2)" fill="#3982e4" fill-rule="evenodd"/>
</svg>
