<svg id="icon-24-_nighboor" data-name="icon-24- nighboor" xmlns="http://www.w3.org/2000/svg" width="24" height="24" viewBox="0 0 24 24">
  <rect id="Rectangle_7192" data-name="Rectangle 7192" width="24" height="24" fill="rgba(255,255,255,0)"/>
  <g id="Group_861" data-name="Group 861" transform="translate(0.799 0.847)">
    <path id="Path_852" data-name="Path 852" d="M23.087,3.036a6.231,6.231,0,0,1,.841,3.1c.148,2,.207,4.4.263,6.874-.073,2.524-.1,5.069-.263,6.874a5.471,5.471,0,0,1-.844,2.875,5.178,5.178,0,0,1-3.228,1.148c-1.9.162-4.243.16-6.828.224-2.874-.049-4.823-.028-6.868-.223A5.417,5.417,0,0,1,2.88,22.768a5.161,5.161,0,0,1-.747-2.909c-.165-1.838-.2-4.328-.263-6.831.094-2.489.1-5,.265-6.873A6.386,6.386,0,0,1,2.87,3.048a5.953,5.953,0,0,1,3.309-.936,58.055,58.055,0,0,1,6.846-.3c2.433,0,4.768.073,6.851.278a5.546,5.546,0,0,1,3.209.947Z" transform="translate(-1.83 -1.82)" fill="#1dbbbe" fill-rule="evenodd"/>
    <path id="Path_853" data-name="Path 853" d="M99.7,130.832v-.053c.023,0,.058.006.076-.012.666-.4,1.332-.8,1.987-1.216a.411.411,0,0,0,.123-.3c.012-.725.018-1.444,0-2.168-.006-.245.058-.339.316-.327.4.018.812,0,1.221.006.6.006.491-.053.5.509.006.3,0,.6,0,.958.152-.088.24-.134.321-.181.615-.374,1.233-.747,1.844-1.134a.351.351,0,0,1,.433,0q2.411,1.481,4.827,2.951c.5.3,1,.608,1.52.929-.362.585-.707,1.145-1.058,1.718-.316-.187-.6-.357-.953-.567v.386c0,1.619-.006,3.232.006,4.851,0,.228-.041.31-.292.31-2.8-.012-5.6-.006-8.4,0-.228,0-.286-.07-.286-.292.006-1.625.006-3.255.006-4.88v-.38c-.392.24-.713.433-1.058.643-.2-.333-.386-.631-.578-.929C100.074,131.375,99.889,131.107,99.7,130.832Z" transform="translate(-95.364 -121.28)" fill="#fff"/>
  </g>
</svg>
