<svg id="icon-24-invisible" xmlns="http://www.w3.org/2000/svg" width="24" height="24" viewBox="0 0 24 24">
  <rect id="Bounding_box" data-name="Bounding box" width="24" height="24" fill="rgba(255,255,255,0)"/>
  <path id="Icon_color" data-name="Icon color" d="M10.056,14H9.939A10.639,10.639,0,0,1,.06,7.311.8.8,0,0,1,0,7a.991.991,0,0,1,.06-.329A10.64,10.64,0,0,1,9.931,0h.174a10.644,10.644,0,0,1,9.883,6.7.93.93,0,0,1,0,.3.812.812,0,0,1-.06.33A10.644,10.644,0,0,1,10.056,14ZM9.994,2A8.783,8.783,0,0,0,2.069,7a8.786,8.786,0,0,0,15.85,0A8.786,8.786,0,0,0,9.994,2Zm0,9a4,4,0,1,1,4-4A4,4,0,0,1,9.994,11Zm0-6a2,2,0,1,0,2,2A2,2,0,0,0,9.994,5Z" transform="translate(2 5)"/>
</svg>
