<svg id="icon-32-revenue" xmlns="http://www.w3.org/2000/svg" width="32" height="32" viewBox="0 0 32 32">
  <g id="Icon.BG" fill="#fff" stroke="#a3a1fb" stroke-width="1">
    <circle cx="16" cy="16" r="16" stroke="none"/>
    <circle cx="16" cy="16" r="15.5" fill="none"/>
  </g>
  <path id="cart-icon" d="M12.391,15.749A2.25,2.25,0,1,1,14.641,18,2.25,2.25,0,0,1,12.391,15.749Zm-11.25,0A2.25,2.25,0,1,1,3.391,18,2.25,2.25,0,0,1,1.141,15.749ZM0,12.375v-2.25H13.793L15.4,4.5H2.266V2.25H.016V0H3.391A1.124,1.124,0,0,1,4.516,1.125V2.25H16.892a1.149,1.149,0,0,1,1.081,1.435l-2.25,7.874a1.126,1.126,0,0,1-1.082.816ZM1.125,9V7.875h4.5V9ZM2.251,6.749V5.624h4.5V6.749Z" transform="translate(7 7)" fill="#a4a1fb"/>
</svg>
