<svg id="icon-24-marketing_campain" data-name="icon-24-marketing campain" xmlns="http://www.w3.org/2000/svg" width="24" height="24" viewBox="0 0 24 24">
  <rect id="Rectangle_7079" data-name="Rectangle 7079" width="24" height="24" fill="rgba(255,255,255,0)"/>
  <path id="marketing-agency-icon" d="M18.546,8.522v8.961a1.058,1.058,0,0,1-1.054,1.054H11.177a1.3,1.3,0,0,0,.042-.28v-.021a1.073,1.073,0,0,0-.2-.648h6.394a.184.184,0,0,0,.128-.055A.182.182,0,0,0,17.6,17.4V8.548A4.325,4.325,0,0,0,18.546,8.522Zm-7.511,1.711a.248.248,0,0,1-.161.1.245.245,0,0,1-.183-.045h0a.246.246,0,0,1-.1-.16v0a.244.244,0,0,1,.045-.179l.854-1.167a.246.246,0,0,1,.343-.053.247.247,0,0,1,.1.161v0a.247.247,0,0,1-.045.179Zm2.6,4.051a.244.244,0,0,1-.3-.165v0a.244.244,0,0,1,.164-.3c.412-.127.839-.252,1.255-.369a.247.247,0,0,1,.3.167v0a.246.246,0,0,1-.166.3l-1.252.367ZM13.3,13.065a.245.245,0,0,1-.315-.325.242.242,0,0,1,.134-.131c.374-.15.753-.31,1.13-.452a.249.249,0,0,1,.184,0,.245.245,0,0,1,.131.133l0,0a.248.248,0,0,1,0,.185.245.245,0,0,1-.134.131c-.369.136-.764.3-1.128.451ZM12.778,12a.246.246,0,0,1-.376-.255v0a.246.246,0,0,1,.1-.153c.369-.221.729-.5,1.1-.722a.242.242,0,0,1,.177-.031h0a.246.246,0,0,1,.152.1l0,.006a.246.246,0,0,1-.073.337L12.778,12Zm-.829-.948a.246.246,0,1,1-.341-.353l.971-.939a.246.246,0,0,1,.343.008l0,0a.245.245,0,0,1-.009.344Zm-6.2,4.8a.98.98,0,0,0,.014.455A1.611,1.611,0,0,0,6.93,17.5c.328.028.8-.312,1.109-.506a.207.207,0,0,1,.126-.028c.132.012.169.123.223.221.113.2.225.408.344.608a5.4,5.4,0,0,0,.319.486l0,0,.012.017c.011.016.029.04.047.064l0,0c.065.09.133.183.2.266a1.132,1.132,0,0,0,.2.2.168.168,0,0,0,.136.037c.126-.029.313-.351.368-.47a.511.511,0,0,0,.045-.15.6.6,0,0,0-.085-.014h0c-.507-.06-.47-.313-.538-.659-.011-.05-.023-.038-.081-.066a.488.488,0,0,1-.2-.162.912.912,0,0,1-.147-.488c-.026-.46.082-.442.435-.583a6.015,6.015,0,0,1,1.3-.365,6.7,6.7,0,0,1,1-.075,7.45,7.45,0,0,1-1.772-1.779,7.872,7.872,0,0,1-1.2-2.284,6.937,6.937,0,0,1-.69,1.469c-.391.625-2.235,2.153-2.339,2.6h0ZM9.8,13.079a1.27,1.27,0,0,1,.612-.1.981.981,0,0,1,.925,1.085,1.927,1.927,0,0,1-.234.721c.115.111.237.222.368.335a4.576,4.576,0,0,0,.569.426,2.814,2.814,0,0,0,.518.259c.226-.045.2-.353.179-.535a3.519,3.519,0,0,0-.361-1.058,9.041,9.041,0,0,0-.816-1.316,10.1,10.1,0,0,0-1-1.168,5.842,5.842,0,0,0-.647-.562,1.633,1.633,0,0,0-.715-.34c-.111,0-.13.042-.138.149a1.8,1.8,0,0,0,.074.592,5.183,5.183,0,0,0,.359.921C9.562,12.624,9.8,13.092,9.8,13.079Zm1.734,3.175a5.548,5.548,0,0,0-2.123.481c0,.042,0,.087,0,.131.005.066.027.235.1.27.036.017.074.035.11.054a.362.362,0,0,1,.161.142v0c.1.156.033.475.246.5h0c.334.038.452.2.451.4a1.693,1.693,0,0,1-.555.973.526.526,0,0,1-.2.087.579.579,0,0,1-.438-.121,1.607,1.607,0,0,1-.315-.313,7.217,7.217,0,0,1-.585-.842c-.1-.171-.208-.362-.315-.556l0,0c-.08.05-.157.1-.236.154a1.379,1.379,0,0,1-.946.3,2.018,2.018,0,0,1-1.53-1.586,1.352,1.352,0,0,1,0-.582c.231-.979,2.392-2.025,3.166-4.489l0,0c.1-.311.187-.776.569-.825a1.266,1.266,0,0,1,.749.207l0,0a5.134,5.134,0,0,1,1,.8,10.489,10.489,0,0,1,1.049,1.225,9.389,9.389,0,0,1,.862,1.4,3.881,3.881,0,0,1,.391,1.167,1.549,1.549,0,0,1,0,.407c-.056.4-.242.552-.66.6-.271.031-.66.012-.947.021ZM6.314,18.536H2.4a1.058,1.058,0,0,1-1.054-1.054V8.531a4.556,4.556,0,0,0,.948.058V17.4a.185.185,0,0,0,.183.183H5.127a2.93,2.93,0,0,0,.278.336,2.5,2.5,0,0,0,.909.613ZM.028,4.921,1.374.609A.873.873,0,0,1,2.278,0H17.51a.962.962,0,0,1,.9.605l1.449,4.31a3.324,3.324,0,0,1,.033.866,1.9,1.9,0,0,1-.561,1.349,2.268,2.268,0,0,1-2.157.382,3.943,3.943,0,0,1-.859-.382,1.93,1.93,0,0,1-.343-.466,1.93,1.93,0,0,1-.343.466,2.752,2.752,0,0,1-3.331,0,1.92,1.92,0,0,1-.343-.466,1.93,1.93,0,0,1-.343.466,2.752,2.752,0,0,1-3.331,0,1.93,1.93,0,0,1-.343-.466,1.93,1.93,0,0,1-.343.466,2.752,2.752,0,0,1-3.331,0,1.93,1.93,0,0,1-.343-.466,1.93,1.93,0,0,1-.343.466,3.232,3.232,0,0,1-1.147.489A2.263,2.263,0,0,1,.561,7.13,1.9,1.9,0,0,1,0,5.781l.028-.86Z" transform="translate(2.047 2.348)" fill="#02466a"/>
</svg>
