<svg id="icon-24-link" xmlns="http://www.w3.org/2000/svg" width="24" height="24" viewBox="0 0 24 24">
  <rect id="Bounding_box" data-name="Bounding box" width="24" height="24" fill="rgba(255,255,255,0)"/>
  <path id="Icon_color" data-name="Icon color" d="M10.3,18.24a6.06,6.06,0,0,1-8.548,0,6,6,0,0,1,0-8.48l8.5-8.44a4.557,4.557,0,0,1,6.416,0,4.467,4.467,0,0,1,0,6.36l-7.8,7.74A3.014,3.014,0,1,1,4.6,11.17l4.945-4.9a.5.5,0,0,1,.711,0l.541.53a.5.5,0,0,1,0,.71L5.85,12.41a1.261,1.261,0,0,0,1.782,1.77l7.8-7.73a2.738,2.738,0,0,0,0-3.89,2.784,2.784,0,0,0-3.924,0L2.987,11a4.247,4.247,0,0,0,0,6,4.327,4.327,0,0,0,6.056,0L14.7,11.39a.511.511,0,0,1,.721,0l.53.53a.48.48,0,0,1,0,.7Z" transform="translate(3 2)"/>
</svg>
