<svg id="icon-24-actioins-clear" xmlns="http://www.w3.org/2000/svg" width="24" height="24" viewBox="0 0 24 24">
  <rect id="Bounding_box" data-name="Bounding box" width="24" height="24" fill="rgba(255,255,255,0)"/>
  <path id="Icon_color" data-name="Icon color" d="M11.848,10.438a.5.5,0,0,1,0,.71l-.7.7a.5.5,0,0,1-.71,0L6,7.408l-4.44,4.44a.5.5,0,0,1-.71,0l-.7-.7a.5.5,0,0,1,0-.71L4.588,6,.148,1.558a.5.5,0,0,1,0-.71l.7-.7a.5.5,0,0,1,.71,0L6,4.588l4.44-4.44a.5.5,0,0,1,.71,0l.7.7a.5.5,0,0,1,0,.71L7.408,6Z" transform="translate(6.002 6.002)" fill="#a7a7a7"/>
</svg>
