<svg id="icon-24-checkmark-image" xmlns="http://www.w3.org/2000/svg" width="24" height="24" viewBox="0 0 24 24">
  <rect id="Rectangle_7183" data-name="Rectangle 7183" width="24" height="24" fill="rgba(255,255,255,0)"/>
  <path id="checkmark-image-photo-icon" d="M11.191,2.554a1.674,1.674,0,1,1-1.183.49,1.669,1.669,0,0,1,1.183-.49Zm3.922,10.906.875.83,1.635-1.66c.152-.155.248-.279.437-.086l.611.625c.2.2.189.314,0,.5l-2.335,2.3c-.4.39-.329.415-.733.013l-1.518-1.509a.178.178,0,0,1,.017-.275l.708-.734c.107-.112.193-.1.3,0Zm1.309-4.071a4.97,4.97,0,1,1-3.512,1.457,4.95,4.95,0,0,1,3.512-1.457Zm2.834,2.133a4.008,4.008,0,1,0,1.174,2.834,3.995,3.995,0,0,0-1.174-2.834ZM12.222,9.293l-.968-.929-1.061,3.291a.547.547,0,0,1-.957.284L5.883,7l-4.766,4v3.329a.971.971,0,0,0,.959.96H9.909a6.591,6.591,0,0,0,.259,1.116H2.075A2.086,2.086,0,0,1,0,14.321V2.076A2.072,2.072,0,0,1,.609.609L.648.574A2.071,2.071,0,0,1,2.075,0h14.09a2.068,2.068,0,0,1,1.463.61l.035.038a2.07,2.07,0,0,1,.576,1.427V8.033a6.611,6.611,0,0,0-2.711-.194l1.595-1.484V2.076a.96.96,0,0,0-.259-.653L16.84,1.4a.954.954,0,0,0-.674-.284H2.075a.957.957,0,0,0-.653.256L1.4,1.4a.956.956,0,0,0-.282.677V9.509C2.352,8.395,4.33,6.837,5.579,5.787a.545.545,0,0,1,.707,0,.879.879,0,0,1,.1.115L9.3,10.313l1.04-3.165a.549.549,0,0,1,.922-.295l1.88,1.8A6.559,6.559,0,0,0,12.222,9.293ZM11.7,3.716a.723.723,0,1,0,.211.51A.722.722,0,0,0,11.7,3.716Z" transform="translate(1.306 2.339)"/>
</svg>
