<svg id="icon-24-arrow" xmlns="http://www.w3.org/2000/svg" width="24" height="24" viewBox="0 0 24 24">
  <rect id="Bounding_box" data-name="Bounding box" width="24" height="24" fill="rgba(255,255,255,0)"/>
  <path id="Icon_color" data-name="Icon color" d="M20,6.5v1a.5.5,0,0,1-.5.5H3.33l4.45,4.44a.5.5,0,0,1,0,.71l-.71.7a.5.5,0,0,1-.71,0L.22,7.718A.75.75,0,0,1,0,7.188v-.38a.77.77,0,0,1,.22-.53L6.36.148a.5.5,0,0,1,.71,0l.71.71a.49.49,0,0,1,0,.7L3.33,6H19.5A.5.5,0,0,1,20,6.5Z" transform="translate(2 5.002)" fill="#07f"/>
</svg>
