<svg id="icon-24-format_text-point" data-name="icon-24-format text-point" xmlns="http://www.w3.org/2000/svg" width="24" height="24" viewBox="0 0 24 24">
  <rect id="Bounding_box" data-name="Bounding box" width="24" height="24" fill="rgba(255,255,255,0)"/>
  <path id="Icon_color" data-name="Icon color" d="M2,16a2,2,0,1,1,2-2A2,2,0,0,1,2,16Zm15.5-1H6.5a.5.5,0,0,1-.5-.5v-1a.5.5,0,0,1,.5-.5h11a.5.5,0,0,1,.5.5v1A.5.5,0,0,1,17.5,15ZM2,10A2,2,0,1,1,4,8,2,2,0,0,1,2,10ZM17.5,9H6.5A.5.5,0,0,1,6,8.5v-1A.5.5,0,0,1,6.5,7h11a.5.5,0,0,1,.5.5v1A.5.5,0,0,1,17.5,9ZM2,4A2,2,0,1,1,4,2,2,2,0,0,1,2,4ZM17.5,3H6.5A.5.5,0,0,1,6,2.5v-1A.5.5,0,0,1,6.5,1h11a.5.5,0,0,1,.5.5v1A.5.5,0,0,1,17.5,3Z" transform="translate(3 4)"/>
</svg>
