<svg id="icon-24-star" xmlns="http://www.w3.org/2000/svg" width="24" height="24" viewBox="0 0 24 24">
  <rect id="Bounding_box" data-name="Bounding box" width="24" height="24" fill="rgba(255,255,255,0)"/>
  <path id="Icon_color" data-name="Icon color" d="M15.727,19h-.021a.481.481,0,0,1-.251-.07L10,15.6,4.575,18.93a.475.475,0,0,1-.25.07H4.3a.466.466,0,0,1-.287-.1l-.249-.15a.508.508,0,0,1-.19-.529L5.014,12,.177,7.86a.492.492,0,0,1-.149-.54l.11-.249a.489.489,0,0,1,.438-.35l6.373-.51L9.392.32A.506.506,0,0,1,9.864,0h.276A.49.49,0,0,1,10.6.32l2.483,5.89,6.373.51a.49.49,0,0,1,.438.35l.08.249a.489.489,0,0,1-.139.53L14.987,12l1.436,6.221a.509.509,0,0,1-.189.529l-.22.15A.466.466,0,0,1,15.727,19ZM10,13.55h0l4.109,2.51-1.117-4.68,3.659-3.13-4.8-.38L10,3.41,8.145,7.871l-4.8.38,3.659,3.13-1.127,4.68L10,13.551Z" transform="translate(2 2)" fill="#7c7c7c"/>
</svg>
