<svg id="icon-24-blocked" xmlns="http://www.w3.org/2000/svg" width="24" height="24" viewBox="0 0 24 24">
  <rect id="Bounding_box" data-name="Bounding box" width="24" height="24" fill="rgba(255,255,255,0)"/>
  <path id="Icon_color" data-name="Icon color" d="M10,20A10,10,0,1,1,20,10,10.011,10.011,0,0,1,10,20ZM3.69,5.1h0A7.991,7.991,0,0,0,10,18h.008A7.958,7.958,0,0,0,14.9,16.31L3.69,5.1ZM9.992,2A7.954,7.954,0,0,0,5.1,3.69L16.31,14.9A7.992,7.992,0,0,0,10,2Z" transform="translate(2 2)" fill="#ff3838"/>
</svg>
