<svg id="icon-32-comment" xmlns="http://www.w3.org/2000/svg" width="32" height="32" viewBox="0 0 32 32">
  <rect id="Rectangle_7233" data-name="Rectangle 7233" width="32" height="32" fill="rgba(255,255,255,0)"/>
  <g id="icons" transform="translate(2 2)">
    <path id="message" d="M23.543,1H4.709A4.722,4.722,0,0,0,0,5.709V17.48a4.722,4.722,0,0,0,4.709,4.709V25.72a1.178,1.178,0,0,0,2,.824l4.355-4.355H23.543a4.722,4.722,0,0,0,4.709-4.709V5.709A4.722,4.722,0,0,0,23.543,1ZM16.48,15.126H9.417a1.177,1.177,0,1,1,0-2.354H16.48a1.177,1.177,0,0,1,0,2.354Zm2.354-4.709H9.417A1.112,1.112,0,0,1,8.24,9.24,1.112,1.112,0,0,1,9.417,8.063h9.417A1.112,1.112,0,0,1,20.011,9.24,1.112,1.112,0,0,1,18.834,10.417Z"/>
  </g>
</svg>
