<svg id="icon-24-actions-clear_square" xmlns="http://www.w3.org/2000/svg" width="24" height="24" viewBox="0 0 24 24">
  <rect id="Bounding_box" data-name="Bounding box" width="24" height="24" fill="rgba(255,255,255,0)"/>
  <path id="Icon_color" data-name="Icon color" d="M16,18H2a2,2,0,0,1-2-2V2A2,2,0,0,1,2,0H16a2,2,0,0,1,2,2V16A2,2,0,0,1,16,18ZM2,2V16H16V2ZM11.21,12.242a.478.478,0,0,1-.35-.152L9,10.24,7.14,12.09a.478.478,0,0,1-.7,0l-.53-.53a.478.478,0,0,1,0-.7L7.76,9,5.91,7.14a.478.478,0,0,1,0-.7l.53-.53a.478.478,0,0,1,.7,0L9,7.76l1.86-1.85a.478.478,0,0,1,.7,0l.53.53a.478.478,0,0,1,0,.7L10.24,9l1.849,1.86a.478.478,0,0,1,0,.7l-.53.53A.477.477,0,0,1,11.21,12.242Z" transform="translate(3 3)" fill="#02466a"/>
</svg>
