<svg id="icon-24-chat" xmlns="http://www.w3.org/2000/svg" width="24" height="24" viewBox="0 0 24 24">
  <rect id="Bounding_box" data-name="Bounding box" width="24" height="24" fill="rgba(255,255,255,0)"/>
  <path id="Icon_color" data-name="Icon color" d="M21.5,21a.5.5,0,0,1-.35-.149l-2-2a3.029,3.029,0,0,0-2.125-.879H6.006a2,2,0,0,1-2-2H16.015a4,4,0,0,0,4-3.994V3.994a2,2,0,0,1,1.982,2V20.5A.5.5,0,0,1,21.5,21ZM.5,16.976a.5.5,0,0,1-.5-.5V3.994A4,4,0,0,1,4,0h10.01a4,4,0,0,1,4,3.994V9.986a4,4,0,0,1-4,3.994H4.947a2.987,2.987,0,0,0-2.094.85l-2,2A.5.5,0,0,1,.5,16.976ZM4,2a2,2,0,0,0-2,2v8.987a5.05,5.05,0,0,1,3-1h9.008a2,2,0,0,0,2-2V3.994a2,2,0,0,0-2-2Z" transform="translate(1 2)" fill="#02466a"/>
</svg>
