<svg id="icon-24-whatsapp" xmlns="http://www.w3.org/2000/svg" width="24" height="24" viewBox="0 0 24 24">
  <rect id="Bounding_box" data-name="Bounding box" width="24" height="24" fill="rgba(255,255,255,0)"/>
  <path id="Icon_color" data-name="Icon color" d="M9.995,20h0a9.968,9.968,0,0,1-5.517-1.66l-2.849.92h-.15a.51.51,0,0,1-.36-.15A.49.49,0,0,1,1,18.6l.9-2.74A9.993,9.993,0,1,1,9.995,20ZM10,2a8,8,0,1,0,5.656,2.344A8.009,8.009,0,0,0,10,2Zm2.794,12.739a7.636,7.636,0,0,1-2.514-.689,10.409,10.409,0,0,1-4.2-3.72,4.767,4.767,0,0,1-1-2.54A2.739,2.739,0,0,1,6,5.73a1.266,1.266,0,0,1,.82-.3h.33c.254,0,.37,0,.54.42s.691,1.7.75,1.82a.473.473,0,0,1,0,.46,1.691,1.691,0,0,1-.27.391c-.053.062-.109.119-.164.175A2.982,2.982,0,0,0,7.8,8.92a.4.4,0,0,0-.1.53,7.557,7.557,0,0,0,1.37,1.7,6.3,6.3,0,0,0,2,1.23.549.549,0,0,0,.6-.1,7.668,7.668,0,0,0,.65-.879.48.48,0,0,1,.61-.17c.224.068,1.382.641,1.68.79l.129.063a.858.858,0,0,1,.351.227,1.993,1.993,0,0,1-.16,1.18,2.314,2.314,0,0,1-1.65,1.19A2.063,2.063,0,0,1,12.791,14.739Z" transform="translate(2.003 2)" fill="#1bbe6c"/>
</svg>
