<svg id="icon-24-choice" xmlns="http://www.w3.org/2000/svg" width="24" height="24" viewBox="0 0 24 24">
  <rect id="Rectangle_7258" data-name="Rectangle 7258" width="24" height="24" fill="rgba(255,255,255,0)"/>
  <path id="click-icon" d="M7.109,2.557a.587.587,0,0,1-.175.418h0a.592.592,0,0,1-1.008-.419V.592A.594.594,0,0,1,6.517,0a.584.584,0,0,1,.418.175.593.593,0,0,1,.175.419Zm4.369,13.4a.33.33,0,0,1,.659,0V17.46a.33.33,0,1,1-.659,0Zm-1.945-.666a.33.33,0,0,1,.659,0V17.46a.33.33,0,1,1-.659,0ZM4.64,13.954a.336.336,0,0,1-.061-.04q-.916-.741-1.825-1.491a1.461,1.461,0,0,0-.624-.313.619.619,0,0,0-.35.016.35.35,0,0,0-.192.194,1.206,1.206,0,0,0-.07.566,2.179,2.179,0,0,0,.194.7,4.63,4.63,0,0,0,.51.863l3.09,4.674a.414.414,0,0,1,.063.175A2.671,2.671,0,0,0,5.7,20.416a.505.505,0,0,0,.449.255c1.573,0,3.254-.059,4.812,0a1.456,1.456,0,0,0,.82-.264,2.622,2.622,0,0,0,.75-.874l.059-.1a7.064,7.064,0,0,0,1.223-3.2L13.8,14.856v-.379c.01-1,.028-2.541-.807-2.692h-.54a11.35,11.35,0,0,1-.031,1.276c-.014.238-.026.46-.026.662a.4.4,0,1,1-.807,0c0-.192.014-.44.03-.7.056-1,.131-2.339-.566-2.471h-.524a.385.385,0,0,1-.1-.012A12.072,12.072,0,0,1,10.4,11.99c-.012.238-.026.46-.026.662a.4.4,0,1,1-.806,0c0-.192.014-.44.028-.7.058-1,.133-2.339-.566-2.471H8.5a.35.35,0,0,1-.1-.014v2.068a.4.4,0,1,1-.806,0V7.341a1.4,1.4,0,0,0-.652-1.33A.93.93,0,0,0,6.118,6l-.017.01a1.4,1.4,0,0,0-.645,1.346V14.7a.4.4,0,0,1-.807,0v-.743Zm7.715-2.971a.435.435,0,0,1,.107-.014h.558a.407.407,0,0,1,.093.01c1.526.245,1.5,2.211,1.489,3.5,0,.594.024,1.185.031,1.777a7.825,7.825,0,0,1-1.341,3.578l-.056.1a3.406,3.406,0,0,1-.986,1.143,2.251,2.251,0,0,1-1.274.405H6.162a1.264,1.264,0,0,1-1.126-.612,3.321,3.321,0,0,1-.447-1.377L1.577,14.93a5.418,5.418,0,0,1-.6-1.021,2.95,2.95,0,0,1-.262-.975,2,2,0,0,1,.14-.947,1.143,1.143,0,0,1,.62-.61,1.407,1.407,0,0,1,.813-.058,2.305,2.305,0,0,1,.981.484l1.37,1.131V7.356A2.186,2.186,0,0,1,5.725,5.291l.026-.01a1.715,1.715,0,0,1,.757-.175,1.748,1.748,0,0,1,.785.187,2.164,2.164,0,0,1,1.1,2.048V8.669a.421.421,0,0,1,.1-.014h.558a.407.407,0,0,1,.093.01A1.389,1.389,0,0,1,10.3,9.8a.393.393,0,0,1,.215-.063h.556a.4.4,0,0,1,.093.01,1.418,1.418,0,0,1,1.187,1.243ZM2.572,6.467a.582.582,0,0,1,.414.175.592.592,0,0,1-.418,1.012H.607A.587.587,0,0,1,.19,7.479.594.594,0,0,1,.607,6.467ZM4.035,3.592a.593.593,0,1,1-.839.837L1.813,3.041A.593.593,0,1,1,2.651,2.2Zm6.327,4.065a.6.6,0,0,1,0-1.19h1.963a.586.586,0,0,1,.419.175.594.594,0,0,1-.419,1.012ZM9.736,4.324A.593.593,0,1,1,8.9,3.485l1.382-1.4a.593.593,0,0,1,.839.839l-1.382,1.4Z" transform="translate(4.676 1.262)"/>
</svg>
