<svg id="icon-24-image" xmlns="http://www.w3.org/2000/svg" width="24" height="24" viewBox="0 0 24 24">
  <rect id="Bounding_box" data-name="Bounding box" width="24" height="24" fill="rgba(255,255,255,0)"/>
  <path id="Icon_color" data-name="Icon color" d="M19.25,14H.75A.756.756,0,0,1,0,13.25v-.91a1.01,1.01,0,0,1,.21-.61L4.46,6.24a.75.75,0,0,1,1.17,0L7.82,8.9a.5.5,0,0,0,.78,0l4-5.171a.76.76,0,0,1,1.2,0l6,8a1.011,1.011,0,0,1,.2.6v.92A.756.756,0,0,1,19.25,14ZM6,4A2,2,0,1,1,8,2,2,2,0,0,1,6,4Z" transform="translate(2 5)"/>
</svg>
