<svg id="icon-24-_email" data-name="icon-24- email" xmlns="http://www.w3.org/2000/svg" width="24" height="24" viewBox="0 0 24 24">
  <rect id="Bounding_box" data-name="Bounding box" width="24" height="24" fill="rgba(255,255,255,0)"/>
  <path id="Icon_color" data-name="Icon color" d="M18,16H2a2,2,0,0,1-2-2V2A2,2,0,0,1,2,0H18a2,2,0,0,1,2,2V14A2,2,0,0,1,18,16ZM2,7v7H18V7l-6.35,4.44a2.878,2.878,0,0,1-3.3,0ZM2,2V4.9L9.35,10.05a1.14,1.14,0,0,0,1.3,0L18,4.9V2Z" transform="translate(2 4)" fill="#1dbbbe"/>
</svg>
