<svg id="icon-32-instagram" xmlns="http://www.w3.org/2000/svg" xmlns:xlink="http://www.w3.org/1999/xlink" width="32" height="32" viewBox="0 0 32 32">
  <defs>
    <linearGradient id="linear-gradient" x1="0.146" y1="0.854" x2="0.854" y2="0.146" gradientUnits="objectBoundingBox">
      <stop offset="0" stop-color="#ffd521"/>
      <stop offset="0.055" stop-color="#ffd020"/>
      <stop offset="0.124" stop-color="#fec01e"/>
      <stop offset="0.2" stop-color="#fca71b"/>
      <stop offset="0.282" stop-color="#fa8316"/>
      <stop offset="0.368" stop-color="#f85510"/>
      <stop offset="0.456" stop-color="#f51e09"/>
      <stop offset="0.5" stop-color="#f30005"/>
      <stop offset="0.503" stop-color="#f20007"/>
      <stop offset="0.597" stop-color="#e1003b"/>
      <stop offset="0.688" stop-color="#d30067"/>
      <stop offset="0.776" stop-color="#c70088"/>
      <stop offset="0.859" stop-color="#bf00a0"/>
      <stop offset="0.936" stop-color="#bb00af"/>
      <stop offset="1" stop-color="#b900b4"/>
    </linearGradient>
  </defs>
  <rect id="Rectangle_7229" data-name="Rectangle 7229" width="32" height="32" fill="rgba(255,255,255,0)"/>
  <g id="Group_951" data-name="Group 951" transform="translate(2 2)">
    <path id="Path_886" data-name="Path 886" d="M14,28h0A14,14,0,0,1,0,14H0A14,14,0,0,1,14,0h0A14,14,0,0,1,28,14h0A14,14,0,0,1,14,28Z" fill="url(#linear-gradient)"/>
    <g id="Group_951-2" data-name="Group 951" transform="translate(4.116 4.069)">
      <path id="Path_887" data-name="Path 887" d="M168.484,160.49c2.637,0,2.95.009,3.992.058a5.4,5.4,0,0,1,1.835.343,3.276,3.276,0,0,1,1.873,1.883,5.548,5.548,0,0,1,.342,1.845c.046,1.048.058,1.362.058,4.013s-.009,2.965-.058,4.013a5.472,5.472,0,0,1-.342,1.845,3.276,3.276,0,0,1-1.873,1.883,5.473,5.473,0,0,1-1.835.343c-1.042.047-1.355.058-3.992.058s-2.95-.009-3.992-.058a5.4,5.4,0,0,1-1.835-.343,3.276,3.276,0,0,1-1.873-1.883,5.549,5.549,0,0,1-.342-1.845c-.046-1.048-.058-1.362-.058-4.013s.009-2.965.058-4.013a5.473,5.473,0,0,1,.342-1.845,3.276,3.276,0,0,1,1.873-1.883,5.473,5.473,0,0,1,1.835-.343c1.042-.049,1.355-.058,3.992-.058m0-1.79c-2.684,0-3.02.012-4.073.061a7.23,7.23,0,0,0-2.4.463,4.767,4.767,0,0,0-1.749,1.144,4.891,4.891,0,0,0-1.141,1.76,7.375,7.375,0,0,0-.46,2.412c-.049,1.059-.061,1.4-.061,4.094s.012,3.035.061,4.094a7.332,7.332,0,0,0,.46,2.412,5.082,5.082,0,0,0,2.892,2.9,7.274,7.274,0,0,0,2.4.463c1.054.049,1.39.061,4.073.061s3.02-.012,4.073-.061a7.231,7.231,0,0,0,2.4-.463,4.827,4.827,0,0,0,1.746-1.146,4.891,4.891,0,0,0,1.141-1.76,7.376,7.376,0,0,0,.46-2.412c.049-1.059.061-1.4.061-4.094s-.012-3.035-.061-4.094a7.332,7.332,0,0,0-.46-2.412,5.082,5.082,0,0,0-2.892-2.9,7.273,7.273,0,0,0-2.4-.463c-1.051-.047-1.387-.058-4.071-.058Z" transform="translate(-158.6 -158.7)" fill="#fff"/>
      <path id="Path_888" data-name="Path 888" d="M329.751,324.7a5.1,5.1,0,1,0,5.051,5.1A5.077,5.077,0,0,0,329.751,324.7Zm0,8.412a3.311,3.311,0,1,1,3.279-3.311A3.3,3.3,0,0,1,329.751,333.112Z" transform="translate(-319.867 -319.87)" fill="#fff"/>
      <circle id="Ellipse_240" data-name="Ellipse 240" cx="1.193" cy="1.193" r="1.193" transform="translate(13.962 3.436)" fill="#fff"/>
    </g>
  </g>
</svg>
