<svg id="icon-24-delivery" xmlns="http://www.w3.org/2000/svg" width="24" height="24" viewBox="0 0 24 24">
  <rect id="Rectangle_7193" data-name="Rectangle 7193" width="24" height="24" fill="rgba(255,255,255,0)"/>
  <path id="on-time-delivery-icon" d="M15.9,4.276l-1.5-.011V2.25a1.091,1.091,0,0,0-1.088-1.088H8.9a5.281,5.281,0,0,1,.352.591H13.32a.5.5,0,0,1,.352.146.5.5,0,0,1,.146.352v9.234H12.155a.3.3,0,1,0,0,.589h1.958a.294.294,0,0,0,.288-.3v-.332h1.192a2.5,2.5,0,0,1,4.991,0h.967c.25-2.988-1.23-4.157-3.475-4.418a8.046,8.046,0,0,0-.819-2c-.415-.766-.511-.735-1.364-.749ZM2.849,3.524l.786-.009.058.014a3.048,3.048,0,0,1,.446.315,2.858,2.858,0,0,1,.288.278A18.432,18.432,0,0,1,5.573,2.54,20.387,20.387,0,0,1,7.035.933L7.112.905h.856L7.793,1.1A28.487,28.487,0,0,0,5.984,3.381,24.8,24.8,0,0,0,4.569,5.659l-.107.207-.1-.213A5.144,5.144,0,0,0,3.7,4.582a4.306,4.306,0,0,0-.916-.849l.063-.209ZM6.14,6.9a.281.281,0,1,1-.487.281L5.5,6.918a.281.281,0,1,1,.487-.281L6.14,6.9ZM2.523,1.777A.281.281,0,1,1,3.01,1.5l.153.264a.281.281,0,1,1-.487.281l-.153-.264ZM7.17,5.656a.285.285,0,1,1-.281.5L6.626,6a.281.281,0,1,1,.281-.487l.264.153ZM1.485,3.023a.282.282,0,1,1,.281-.489l.264.153a.282.282,0,1,1-.283.487l-.264-.151ZM7.448,4.056a.283.283,0,1,1,0,.564H7.142a.283.283,0,0,1,0-.564Zm-6.241.564a.283.283,0,1,1,0-.564h.3a.283.283,0,1,1,0,.564Zm.559,1.531a.281.281,0,1,1-.281-.487l.264-.153A.281.281,0,1,1,2.03,6l-.264.153ZM3.01,7.19a.281.281,0,1,1-.487-.281l.153-.264a.281.281,0,1,1,.487.281L3.01,7.19ZM4.045,1.218a.283.283,0,1,1,.564,0v.306a.283.283,0,0,1-.564,0ZM4.61,7.459a.283.283,0,1,1-.564,0v-.3a.283.283,0,1,1,.564,0ZM4.327,0A4.331,4.331,0,0,1,6.279.462C6.165.575,6.044.7,5.928.833A3.851,3.851,0,1,0,7.722,2.526c.111-.139.223-.274.334-.4A4.339,4.339,0,1,1,4.327,0ZM6.084,11.482a.3.3,0,1,1,0,.591H2.945a1.067,1.067,0,0,1-.768-.336,1.139,1.139,0,0,1-.32-.782V9.333a5.643,5.643,0,0,0,.592.251v1.371a.547.547,0,0,0,.155.376.478.478,0,0,0,.343.153H6.079Zm2.995-1.64a2,2,0,1,0,1.414.588A2,2,0,0,0,9.079,9.842Zm0,1.23a.768.768,0,1,0,.768.768A.768.768,0,0,0,9.079,11.073Zm9.013-1.517a2,2,0,1,0,2,2,2,2,0,0,0-2-2Zm-.772,2a.768.768,0,1,0,.772-.768.768.768,0,0,0-.772.768ZM16.044,5.128l-.9-.016V7.03h1.907a7.4,7.4,0,0,0-1.007-1.9Z" transform="translate(1.014 5)" fill="#1dbbbe" fill-rule="evenodd"/>
</svg>
