<svg id="icon-24-management_store" data-name="icon-24-management store" xmlns="http://www.w3.org/2000/svg" width="24" height="24" viewBox="0 0 24 24">
  <rect id="Rectangle_1478" data-name="Rectangle 1478" width="24" height="24" fill="rgba(255,255,255,0)"/>
  <path id="budget-management-svgrepo-com" d="M27.821,15.6a3.247,3.247,0,0,0-.265-.332,1.888,1.888,0,0,0,.264-.58,1.862,1.862,0,0,0-.443-1.756,3.349,3.349,0,0,0-1.007-.736,1.873,1.873,0,0,0-3.735-.043,3.42,3.42,0,0,0-.333.169l-1.139-.345h0l-2.125-.644a1.107,1.107,0,0,0-.433-.538,7.424,7.424,0,0,0,.581-.74,7.792,7.792,0,0,0,.857-1.609,6.2,6.2,0,0,0,.257-.676,1.23,1.23,0,0,0,.439-.94V5.94a1.226,1.226,0,0,0-.228-.711V3.978A3.983,3.983,0,0,0,16.533,0h-1.29a3.983,3.983,0,0,0-3.979,3.978V5.229a1.226,1.226,0,0,0-.228.711v.888a1.231,1.231,0,0,0,.439.94,6.272,6.272,0,0,0,.257.677,7.8,7.8,0,0,0,.857,1.608,7.44,7.44,0,0,0,.581.741,1.107,1.107,0,0,0-.433.538l-2.837.86c-2,.574-3.194,9.2-3.194,9.2h0a.764.764,0,0,0-.01.117.753.753,0,0,0,.753.753H23.915a1.872,1.872,0,0,0,2.459-1.778v-.158a3.522,3.522,0,0,0,.993-.66,3.12,3.12,0,0,0,.988-2.315A3,3,0,0,0,27.821,15.6Zm-12.7-1.172a.255.255,0,0,1-.457.127l-.717-.951a.255.255,0,0,1-.051-.154V11.925a.255.255,0,0,1,.374-.225,2.133,2.133,0,0,0,.619.22.255.255,0,0,1,.21.251v.636a.255.255,0,0,1,.16.264Zm2.7-.823-.716.95a.256.256,0,0,1-.2.1.26.26,0,0,1-.068-.009.255.255,0,0,1-.185-.22l-.14-1.355a.255.255,0,0,1,.16-.264v-.636a.255.255,0,0,1,.211-.251,2.138,2.138,0,0,0,.619-.22.255.255,0,0,1,.374.226v1.524A.255.255,0,0,1,17.824,13.6Zm-1.251-3.032H15.2c-.3,0-.887-.4-1.511-1.31a5.276,5.276,0,0,1-.915-2.113l-.014-.105-.248-.161a.255.255,0,0,1-.116-.214v-.42a.255.255,0,0,1,.255-.255h.1V5.539a.255.255,0,0,1,.141-.228,4.207,4.207,0,0,1,1.769-.469,1.9,1.9,0,0,1,1.419.569,2.128,2.128,0,0,0,1.561.71,2.467,2.467,0,0,0,1.009-.23.255.255,0,0,1,.324.1h.139a.255.255,0,0,1,.255.255v.42a.255.255,0,0,1-.116.214l-.247.161L19,7.148a5.281,5.281,0,0,1-.915,2.113C17.46,10.166,16.876,10.571,16.573,10.571Zm9.954,8.214a2.646,2.646,0,0,1-1.372.651v1.051a.653.653,0,0,1-1.307,0V19.47A2.483,2.483,0,0,1,22.006,18.4a.653.653,0,0,1,.426-1l.493-.092a.653.653,0,0,1,.655.269,1.06,1.06,0,0,0,.934.4c.667,0,.667-.266.667-.353a.327.327,0,0,0-.149-.29,1.632,1.632,0,0,0-.563-.192,3.925,3.925,0,0,1-2.078-.854,1.772,1.772,0,0,1-.443-1.2,2.006,2.006,0,0,1,.485-1.321,2.266,2.266,0,0,1,1.414-.716v-.752a.653.653,0,0,1,1.307,0v.766a2.355,2.355,0,0,1,1.332.69.653.653,0,0,1-.282,1.07l-.338.106a.653.653,0,0,1-.684-.19.955.955,0,0,0-.751-.289c-.264,0-.579.063-.579.363a.3.3,0,0,0,.094.221,1.449,1.449,0,0,0,.559.2,10.9,10.9,0,0,1,1.532.419,1.733,1.733,0,0,1,.786.636,1.808,1.808,0,0,1,.313,1.058A1.9,1.9,0,0,1,26.527,18.785Z" transform="translate(-5.526 0.82)" fill="#02466a"/>
</svg>
