<svg id="icon-24-filter" xmlns="http://www.w3.org/2000/svg" width="24" height="24" viewBox="0 0 24 24">
  <rect id="Bounding_box" data-name="Bounding box" width="24" height="24" fill="rgba(255,255,255,0)"/>
  <path id="Icon_color" data-name="Icon color" d="M7.5,18a.5.5,0,0,1-.224-.053A.5.5,0,0,1,7,17.5V10.83A2.013,2.013,0,0,0,6.41,9.41L.59,3.59A2.017,2.017,0,0,1,0,2.17V1A1,1,0,0,1,1,0H17a1,1,0,0,1,1,1V2.17a2.017,2.017,0,0,1-.59,1.42L11.59,9.41A2.013,2.013,0,0,0,11,10.83V14.5a2.01,2.01,0,0,1-.8,1.6L7.8,17.9A.5.5,0,0,1,7.5,18ZM2,2v.17L4.83,5H13.17L16,2.17V2Z" transform="translate(3 3)"/>
</svg>
