<svg id="icon-24-pentool" xmlns="http://www.w3.org/2000/svg" width="24" height="24" viewBox="0 0 24 24">
  <rect id="Rectangle_1477" data-name="Rectangle 1477" width="24" height="24" fill="rgba(255,255,255,0)"/>
  <path id="pen-tool-vector-design" d="M14.68,14.248l-1.558,3.981L7.38,18.153,5.792,14.246A38.463,38.463,0,0,0,9.257,6.221l.757.081-.029,7.021a.729.729,0,1,0,.454-.02l.024-6.956.866-.039a32.689,32.689,0,0,0,3.351,7.943ZM8.751,0h3a.4.4,0,0,1,.4.4v.977h4.733a1.628,1.628,0,0,1,.386-.612h0a1.628,1.628,0,0,1,2.3,0h0a1.628,1.628,0,0,1,0,2.3h0a1.628,1.628,0,0,1-2.306,0l-.029-.033a1.608,1.608,0,0,1-.356-.581H14.441a8.919,8.919,0,0,1,2.116,1.711,9.482,9.482,0,0,1,2.331,4.814h.651a.488.488,0,0,1,.488.488v2.2a.488.488,0,0,1-.488.488h-2.16a.488.488,0,0,1-.488-.488v-2.2a.488.488,0,0,1,.488-.488h.5a8.5,8.5,0,0,0-2.056-4.137A7.7,7.7,0,0,0,12.153,2.58v.859a.4.4,0,0,1-.4.4h-3a.4.4,0,0,1-.394-.4V2.581A7.673,7.673,0,0,0,4.613,4.938,8.584,8.584,0,0,0,2.633,8.986h.488a.488.488,0,0,1,.488.488v2.194a.488.488,0,0,1-.488.488H.95a.488.488,0,0,1-.488-.488v-2.2A.488.488,0,0,1,.95,8.981h.667A9.6,9.6,0,0,1,3.862,4.276,8.88,8.88,0,0,1,6.078,2.461H3.227a1.628,1.628,0,0,1-.386.61h0a1.628,1.628,0,0,1-2.3,0h0a1.628,1.628,0,0,1,0-2.3h0a1.628,1.628,0,0,1,2.3,0h0a1.6,1.6,0,0,1,.387.614H8.357V.409A.4.4,0,0,1,8.751,0Zm4.232,19.93H7.413V18.82h5.573v1.11Z" transform="translate(1.933 2)" fill="#02466a" fill-rule="evenodd"/>
</svg>
