<svg id="icon-24-service" xmlns="http://www.w3.org/2000/svg" width="24" height="24" viewBox="0 0 24 24">
  <rect id="Rectangle_1476" data-name="Rectangle 1476" width="24" height="24" fill="rgba(255,255,255,0)"/>
  <path id="feedback-rating" d="M4.664,1.245,3.7,3.509a.367.367,0,0,1-.327.223L.94,3.95,2.794,5.57a.367.367,0,0,1,.116.358l-.548,2.4L4.475,7.064a.368.368,0,0,1,.384,0l1.01.6L5.7,8.425,4.664,7.807,2.458,9.125a.591.591,0,0,1-.206.079A.6.6,0,0,1,2.017,9.2a.591.591,0,0,1-.446-.708l.574-2.514L.225,4.3A.373.373,0,0,1,.17,4.25a.576.576,0,0,1-.087-.113L.065,4.105a.586.586,0,0,1-.059-.2l0-.035A.593.593,0,0,1,.526,3.25l2.582-.23L4.119.649A.594.594,0,0,1,4.245.461.61.61,0,0,1,4.4.35l.03-.014a.59.59,0,0,1,.775.312L6.042,2.6l-.769.069L4.664,1.245ZM8.983,15.4a.351.351,0,1,1-.7,0v-.648a.341.341,0,0,1-.054-.035l-.675-.547-.91-.747a1.268,1.268,0,0,0-.541-.272.54.54,0,0,0-.3.014.31.31,0,0,0-.165.169,1.047,1.047,0,0,0-.061.492,1.869,1.869,0,0,0,.169.607,4.017,4.017,0,0,0,.444.751l2.684,4.061a.345.345,0,0,1,.055.152,2.326,2.326,0,0,0,.284.973.44.44,0,0,0,.39.221c1.361,0,2.837-.056,4.183,0a1.261,1.261,0,0,0,.709-.228,2.287,2.287,0,0,0,.654-.765l.05-.086a6.244,6.244,0,0,0,1.072-2.785l-.027-1.192,0-.052,0-.281c.01-.872.025-2.208-.7-2.338h-.47c.014.373-.007.758-.027,1.108-.012.206-.022.4-.022.576a.351.351,0,0,1-.7,0c0-.165.012-.382.026-.615.049-.869.114-2.031-.493-2.146h-.46a.347.347,0,0,1-.089-.011,10.269,10.269,0,0,1-.019,1.259c-.012.207-.022.4-.022.577a.351.351,0,0,1-.7,0c0-.165.012-.382.026-.615.049-.869.114-2.031-.493-2.146h-.46a.349.349,0,0,1-.092-.012v1.81a.351.351,0,1,1-.7,0V9.008a1.211,1.211,0,0,0-.567-1.156.815.815,0,0,0-.366-.089.807.807,0,0,0-.364.088,1.225,1.225,0,0,0-.56,1.171V15.4Zm-.7-1.541V9.544l-1.468.878a.286.286,0,0,1-.425-.309h0l.8-3.484L4.492,4.277a.286.286,0,0,1,.173-.5l3.549-.318L9.618.172a.286.286,0,0,1,.527,0l1.4,3.285,3.559.319a.285.285,0,0,1,.163.5L12.577,6.628l.8,3.484a.286.286,0,0,1-.435.3l-1.4-.836v.582a.349.349,0,0,1,.092-.012h.483a.339.339,0,0,1,.08.009,1.206,1.206,0,0,1,1.007.982.349.349,0,0,1,.188-.054h.483a.363.363,0,0,1,.08.009,1.24,1.24,0,0,1,1.032,1.081.359.359,0,0,1,.093-.012h.484a.342.342,0,0,1,.08.01c1.327.212,1.308,1.922,1.3,3.037,0,.516.022,1.029.027,1.545a6.755,6.755,0,0,1-1.166,3.11l-.047.083a2.963,2.963,0,0,1-.866.993,1.946,1.946,0,0,1-1.1.351l-4.178,0a1.1,1.1,0,0,1-.979-.532,2.86,2.86,0,0,1-.388-1.2L5.621,15.6a4.747,4.747,0,0,1-.522-.886,2.558,2.558,0,0,1-.227-.845,1.719,1.719,0,0,1,.121-.824.994.994,0,0,1,.54-.53,1.224,1.224,0,0,1,.7-.052,1.982,1.982,0,0,1,.853.42l1.193.976Zm5.946,2.632a.286.286,0,1,1,.573,0V17.8a.286.286,0,1,1-.573,0v-1.31Zm-1.692-.579a.286.286,0,1,1,.572,0V17.8a.286.286,0,1,1-.572,0V15.916ZM15.642.649l1.012,2.37,2.582.23a.593.593,0,0,1,.523.624l0,.035a.586.586,0,0,1-.059.2l-.019.032a.562.562,0,0,1-.086.112.387.387,0,0,1-.056.052L17.615,5.977l.574,2.514a.591.591,0,0,1-.446.708.587.587,0,0,1-.441-.074L15.1,7.807l-1.03.616-.174-.751,1.009-.6a.368.368,0,0,1,.384,0L17.4,8.328l-.549-2.4a.368.368,0,0,1,.116-.358L18.821,3.95l-2.43-.218a.367.367,0,0,1-.327-.223L15.1,1.245l-.609,1.427L13.719,2.6,14.554.648a.591.591,0,0,1,.775-.312l.029.014a.6.6,0,0,1,.158.112.581.581,0,0,1,.126.188Z" transform="translate(2.119 1.354)" fill="#02466a"/>
</svg>
