<svg id="icon-24-twitter" xmlns="http://www.w3.org/2000/svg" width="32" height="32" viewBox="0 0 32 32">
  <rect id="Rectangle_7231" data-name="Rectangle 7231" width="32" height="32" fill="rgba(255,255,255,0)"/>
  <g id="Group_953" data-name="Group 953" transform="translate(2 2)">
    <circle id="Ellipse_241" data-name="Ellipse 241" cx="14" cy="14" r="14" fill="#1cb7eb"/>
    <g id="Group_954" data-name="Group 954" transform="translate(6.358 7.467)">
      <g id="Group_953-2" data-name="Group 953">
        <path id="Path_893" data-name="Path 893" d="M26.008,14.317a4.676,4.676,0,0,1-1.75.525A3.25,3.25,0,0,0,25.6,13.033a6.748,6.748,0,0,1-1.983.817A2.978,2.978,0,0,0,21.4,12.8a3.206,3.206,0,0,0-3.092,3.325,3.326,3.326,0,0,0,.058.758,8.538,8.538,0,0,1-6.358-3.442,3.165,3.165,0,0,0-.408,1.692,3.318,3.318,0,0,0,1.342,2.742,2.809,2.809,0,0,1-1.4-.408v.058a3.342,3.342,0,0,0,2.45,3.267,3.443,3.443,0,0,1-.817.117,1.984,1.984,0,0,1-.583-.058,3.032,3.032,0,0,0,2.858,2.275,5.957,5.957,0,0,1-3.792,1.4,3.588,3.588,0,0,1-.758-.058,8.288,8.288,0,0,0,4.725,1.517c5.658,0,8.75-5.017,8.75-9.392v-.408A6.969,6.969,0,0,0,26.008,14.317Z" transform="translate(-10.9 -12.8)" fill="#fff"/>
      </g>
    </g>
  </g>
</svg>
