<svg id="icon-24-publish" xmlns="http://www.w3.org/2000/svg" width="24" height="24" viewBox="0 0 24 24">
  <rect id="Bounding_box" data-name="Bounding box" width="24" height="24" fill="rgba(255,255,255,0)"/>
  <path id="Icon_color" data-name="Icon color" d="M13.5,17H.5a.5.5,0,0,1-.5-.5v-1A.5.5,0,0,1,.5,15h13a.5.5,0,0,1,.5.5v1A.5.5,0,0,1,13.5,17Zm-4-4h-5a.5.5,0,0,1-.5-.5V7H1.411a.489.489,0,0,1-.35-.149l-.2-.2a.5.5,0,0,1,0-.71L6.65.151a.481.481,0,0,1,.7,0l5.79,5.791a.5.5,0,0,1,0,.71l-.2.2A.492.492,0,0,1,12.59,7H10v5.5A.5.5,0,0,1,9.5,13Z" transform="translate(5 2.999)"/>
</svg>
