<svg id="icon-24-api" xmlns="http://www.w3.org/2000/svg" width="24" height="24" viewBox="0 0 24 24">
  <rect id="Rectangle_1479" data-name="Rectangle 1479" width="24" height="24" fill="rgba(255,255,255,0)"/>
  <g id="api" transform="translate(0.965 3.449)">
    <path id="Path_358" data-name="Path 358" d="M18.135,1.254l.453.6a.358.358,0,0,1-.069.5l-.482.366a2.858,2.858,0,0,1,.167.736l.549.074a.359.359,0,0,1,.306.4l-.1.743a.359.359,0,0,1-.4.306l-.6-.082a2.9,2.9,0,0,1-.4.638l.335.44a.36.36,0,0,1-.069.5l-.6.453a.36.36,0,0,1-.5-.069l-.366-.482a2.875,2.875,0,0,1-.736.167l-.074.549a.359.359,0,0,1-.4.306l-.743-.1a.359.359,0,0,1-.306-.4l.082-.6a2.838,2.838,0,0,1-.638-.4l-.44.335a.36.36,0,0,1-.5-.069l-.453-.6a.358.358,0,0,1,.069-.5l.482-.366a2.858,2.858,0,0,1-.167-.736l-.549-.074a.359.359,0,0,1-.306-.4l.1-.743a.359.359,0,0,1,.4-.306l.6.082a2.838,2.838,0,0,1,.4-.638l-.337-.44a.36.36,0,0,1,.069-.5l.6-.453a.36.36,0,0,1,.5.069l.366.482a2.875,2.875,0,0,1,.736-.167l.074-.547a.359.359,0,0,1,.4-.306l.743.1a.359.359,0,0,1,.306.4l-.082.6a2.838,2.838,0,0,1,.638.4l.44-.335a.358.358,0,0,1,.5.067ZM10.094,2.5l-.125.011a5.465,5.465,0,0,0-2.83,1.105A5.311,5.311,0,0,0,5.194,6.9l-.087.455-.453.08a6.239,6.239,0,0,0-1.189.321,3.976,3.976,0,0,0-.9.482,2.987,2.987,0,0,0-.545.507,3.076,3.076,0,0,0-.692,2.011,3.637,3.637,0,0,0,.687,2.089,3.414,3.414,0,0,0,.573.616l.005,0L2.107,14.76a3.994,3.994,0,0,1-.37-.275,4.679,4.679,0,0,1-.8-.855A4.961,4.961,0,0,1,0,10.763,4.4,4.4,0,0,1,1,7.891a4.28,4.28,0,0,1,.786-.732,5.3,5.3,0,0,1,1.2-.643,7.279,7.279,0,0,1,1-.3A6.552,6.552,0,0,1,6.327,2.562,6.8,6.8,0,0,1,9.846,1.187a6.948,6.948,0,0,1,1.165-.016,1.754,1.754,0,0,0-.241.154l-.005,0A1.735,1.735,0,0,0,10.1,2.47l0,.031ZM7.945,15.842H5.8l-.308,1.011H3.551l2.31-6.137H7.938l2.3,6.137H8.253l-.308-1.011Zm-.4-1.33-.67-2.205L6.2,14.512Zm3.289-3.8h3.155a2.16,2.16,0,0,1,1.544.489,1.847,1.847,0,0,1,.513,1.4,1.9,1.9,0,0,1-.56,1.455,2.426,2.426,0,0,1-1.709.524h-1.04v2.272h-1.9V10.716Zm1.9,2.622H13.2a1.2,1.2,0,0,0,.776-.192.614.614,0,0,0,.223-.489.681.681,0,0,0-.194-.489,1.006,1.006,0,0,0-.728-.2h-.544v1.372Zm4.075-2.622h1.9v6.137h-1.9V10.716ZM20.3,5.76a4.715,4.715,0,0,1,.556.511,5.29,5.29,0,0,1,.549.707,5.97,5.97,0,0,1,.864,3.247,5.332,5.332,0,0,1-.951,3.118,4.8,4.8,0,0,1-.5.565V11.271a4.954,4.954,0,0,0,.121-1.056,4.614,4.614,0,0,0-.65-2.511,3.76,3.76,0,0,0-.408-.524,3.293,3.293,0,0,0-.371-.344c.013-.054.024-.109.031-.163a1.781,1.781,0,0,0,.013-.341,1.679,1.679,0,0,0,.41-.23l.005,0A1.789,1.789,0,0,0,20.3,5.76Zm-4.733-3.51A1.475,1.475,0,1,1,13.9,3.512a1.475,1.475,0,0,1,1.662-1.261Z" fill="#02466a" fill-rule="evenodd"/>
  </g>
</svg>
