<svg id="icon-24-user" xmlns="http://www.w3.org/2000/svg" width="24" height="24" viewBox="0 0 24 24">
  <rect id="Bounding_box" data-name="Bounding box" width="24" height="24" fill="rgba(255,255,255,0)"/>
  <path id="Icon_color" data-name="Icon color" d="M19,20H1a1,1,0,0,1-.89-1.45L2,14.76A4.974,4.974,0,0,1,6.469,12h7.062A4.974,4.974,0,0,1,18,14.76l1.89,3.79a.992.992,0,0,1-.04.973A1,1,0,0,1,19,20ZM6.469,14a2.984,2.984,0,0,0-2.681,1.66L2.618,18H17.383l-1.171-2.34A2.983,2.983,0,0,0,13.532,14ZM10,10a5,5,0,1,1,5-5A5.006,5.006,0,0,1,10,10Zm0-8a3,3,0,1,0,3,3A3,3,0,0,0,10,2Z" transform="translate(2.003 2)" fill="#07f"/>
</svg>
