<svg id="icon-24-marketing" xmlns="http://www.w3.org/2000/svg" width="24" height="24" viewBox="0 0 24 24">
  <rect id="Rectangle_1474" data-name="Rectangle 1474" width="24" height="24" fill="rgba(255,255,255,0)"/>
  <g id="marketing" transform="translate(2.494 2.45)">
    <path id="Path_355" data-name="Path 355" d="M12.946,2.662a.4.4,0,1,1-.5-.61L14.812.094a.395.395,0,1,1,.5.609l-2.37,1.959ZM1.433,9.56a.974.974,0,0,0-.58.472,1.908,1.908,0,0,0-.208.953,3.082,3.082,0,0,0,.044.473,3.484,3.484,0,0,0,.118.483A3.432,3.432,0,0,0,1,12.407a3.084,3.084,0,0,0,.244.409h0a1.859,1.859,0,0,0,.81.673,1.3,1.3,0,0,0,.918.009l.006,0a.281.281,0,0,1,.113-.014.358.358,0,0,1,.08.014l.008,0c.09-.03.182-.058.274-.086l.25-.077.259-.075c.08-.024.162-.046.245-.068a.322.322,0,0,1,.245.031l.008,0a.322.322,0,0,1,.143.19.18.18,0,0,1,.008.038c.022.1.049.2.068.3a17.2,17.2,0,0,0,.56,2.106c.019.06.042.118.064.178.068.189.138.384.217.561a1.978,1.978,0,0,0,.247.44v0A.331.331,0,0,0,6,17.181a.628.628,0,0,0,.39-.168c.069-.064.132-.12.2-.175l.014-.013a1.447,1.447,0,0,0,.459-.547.28.28,0,0,0-.042-.027,1.214,1.214,0,0,0-.127-.06l0,0a1.073,1.073,0,0,1-.456-.294.927.927,0,0,1-.143-.736c0-.022,0-.041.008-.06s.006-.044.008-.066a1.541,1.541,0,0,0,.025-.272v0c0-.006-.038-.03-.1-.091-.019-.017-.039-.035-.057-.053a.821.821,0,0,1-.211-.319,1.2,1.2,0,0,1-.066-.428,2.172,2.172,0,0,1,.057-.448,3.117,3.117,0,0,1,.157-.487l0,0a.313.313,0,0,1,.1-.126.322.322,0,0,1,.153-.064h0A11,11,0,0,1,9.321,12.7a12.447,12.447,0,0,1,1.86.4,9.721,9.721,0,0,1-1.12-1.6A15.362,15.362,0,0,1,8.95,9.018a16.6,16.6,0,0,1-.681-2.579,10.462,10.462,0,0,1-.175-1.907A12.361,12.361,0,0,1,6.129,6.776a13.578,13.578,0,0,1-4.4,2.555l-.061.02-.009.016-.035.055,0,0a.328.328,0,0,1-.074.08h0a.326.326,0,0,1-.1.053ZM10.4,10.778a10.422,10.422,0,0,0,.977,1.554,5.662,5.662,0,0,0,1.079,1.088l.039,0a.3.3,0,0,0,.053,0h.006a.383.383,0,0,0,.091-.016.488.488,0,0,0,.094-.042,1.009,1.009,0,0,0,.2-.315,2.006,2.006,0,0,0,.132-.484,6.3,6.3,0,0,0-.088-1.992,16.034,16.034,0,0,0-.733-2.648,17.844,17.844,0,0,0-1.12-2.489,8.358,8.358,0,0,0-1.2-1.728,2.556,2.556,0,0,0-.431-.37.94.94,0,0,0-.354-.154h0c-.025,0-.046-.006-.061-.008s0,0,0,0h0s0,0-.009.009-.035.031-.058.055a.783.783,0,0,0-.06.064l-.006.013a3.718,3.718,0,0,0-.206,1.7,12.77,12.77,0,0,0,.429,2.511,1.769,1.769,0,0,1,1.587.294,1.577,1.577,0,0,1,.467.671,1.875,1.875,0,0,1,.1.827,1.9,1.9,0,0,1-.918,1.456Zm2,3.285a.316.316,0,0,1-.094,0,.3.3,0,0,1-.088-.027c-.042-.008-.085-.016-.126-.025-.3-.061-.587-.145-.9-.233l-.02-.006a10.286,10.286,0,0,0-4.541-.42,2.279,2.279,0,0,0-.071.256,1.471,1.471,0,0,0-.031.266.673.673,0,0,0,.02.178.2.2,0,0,0,.052.091l.038.035a.806.806,0,0,1,.308.417,1.356,1.356,0,0,1-.013.543c0,.036-.008.072-.014.109a.314.314,0,0,0,.042.247.45.45,0,0,0,.176.105l.008,0a.839.839,0,0,1,.554.5.3.3,0,0,1,.024.091.329.329,0,0,1,0,.1v0a1.379,1.379,0,0,1-.283.612,3.079,3.079,0,0,1-.428.42l-.035.03c-.052.044-.1.088-.151.135l-.025.022a1.24,1.24,0,0,1-.888.343.979.979,0,0,1-.657-.41,2.61,2.61,0,0,1-.322-.557c-.091-.2-.17-.42-.245-.629-.02-.058-.042-.116-.064-.175a17.62,17.62,0,0,1-.58-2.178c-.057.016-.113.035-.17.05-.088.027-.175.052-.258.079l-.25.079,0,0a.205.205,0,0,0-.03.011l0,0a.516.516,0,0,1-.154.047.29.29,0,0,1-.138-.019,1.907,1.907,0,0,1-1.249-.063,2.538,2.538,0,0,1-1.079-.9l0,0a3.8,3.8,0,0,1-.292-.5,4.093,4.093,0,0,1-.223-.552,3.885,3.885,0,0,1-.14-.576A3.951,3.951,0,0,1,0,10.991,2.566,2.566,0,0,1,.293,9.7a1.6,1.6,0,0,1,.838-.722c.014-.022.025-.041.038-.057a.462.462,0,0,1,.072-.075l.006,0a.45.45,0,0,1,.1-.061c.031-.014.068-.028.116-.046L1.5,8.722a12.794,12.794,0,0,0,4.373-2.6A12.888,12.888,0,0,0,7.909,3.652l.009-.014a5.929,5.929,0,0,1,.637-.852h0A1.235,1.235,0,0,1,8.7,2.66a.637.637,0,0,1,.157-.086.629.629,0,0,1,.186-.038,1.01,1.01,0,0,1,.209.016,1.526,1.526,0,0,1,.565.226,3.128,3.128,0,0,1,.582.487A8.992,8.992,0,0,1,11.686,5.11a18.377,18.377,0,0,1,1.173,2.6,16.663,16.663,0,0,1,.766,2.794,6.839,6.839,0,0,1,.083,2.165,2.71,2.71,0,0,1-.195.679,1.609,1.609,0,0,1-.344.5l-.02.019-.028.02a1.087,1.087,0,0,1-.272.134,1.044,1.044,0,0,1-.274.049h-.006c-.031,0-.061,0-.09,0s-.049-.006-.074-.009Zm3.87-1.719a.394.394,0,0,1-.03-.788l2.768-.1a.395.395,0,0,1,.03.789l-2.768.1ZM16.2,9.655a.394.394,0,0,1-.105-.782l2.557-.34a.394.394,0,1,1,.105.782l-2.557.34Zm-.538-2.469a.4.4,0,1,1-.259-.747l2.621-.91a.4.4,0,1,1,.259.747l-2.621.91ZM14.422,4.81a.394.394,0,1,1-.39-.686L16.517,2.7a.394.394,0,0,1,.39.686L14.422,4.81Z" transform="translate(0 0)" fill="#02466a" fill-rule="evenodd"/>
  </g>
</svg>
