<svg id="icon-24-arrow" xmlns="http://www.w3.org/2000/svg" width="24" height="24" viewBox="0 0 24 24">
  <rect id="Bounding_box" data-name="Bounding box" width="24" height="24" fill="rgba(255,255,255,0)"/>
  <path id="Icon_color" data-name="Icon color" d="M7.5,0A.5.5,0,0,1,8,.5V16.67l4.44-4.45a.5.5,0,0,1,.71,0l.7.71a.5.5,0,0,1,0,.71l-6.13,6.14a.75.75,0,0,1-.53.22h-.38a.77.77,0,0,1-.53-.22L.148,13.64a.5.5,0,0,1,0-.71l.71-.71a.49.49,0,0,1,.7,0L6,16.67V.5A.5.5,0,0,1,6.5,0Z" transform="translate(5.002 2)"/>
</svg>
