<svg id="icon-24-dashboard" xmlns="http://www.w3.org/2000/svg" width="24" height="24" viewBox="0 0 24 24">
  <rect id="Bounding_box" data-name="Bounding box" width="24" height="24" fill="rgba(255,255,255,0)"/>
  <path id="Icon_color" data-name="Icon color" d="M17,18H11a1,1,0,0,1-1-1V9a1,1,0,0,1,1-1h6a1,1,0,0,1,1,1v8A1,1,0,0,1,17,18Zm-5-8v6h4V10ZM7,18H1a1,1,0,0,1-1-1V1A1,1,0,0,1,1,0H7A1,1,0,0,1,8,1V17A1,1,0,0,1,7,18ZM2,2V16H6V2ZM17,6H11a1,1,0,0,1-1-1V1a1,1,0,0,1,1-1h6a1,1,0,0,1,1,1V5A1,1,0,0,1,17,6ZM12,2V4h4V2Z" transform="translate(3 3)" fill="#02466a"/>
</svg>
