<svg id="icon-24-dollar" xmlns="http://www.w3.org/2000/svg" width="24" height="24" viewBox="0 0 24 24">
  <rect id="Rectangle_7166" data-name="Rectangle 7166" width="24" height="24" fill="rgba(255,255,255,0)"/>
  <path id="dollar-note-icon" d="M0,0H22.27V11.579H0ZM11.139,2.385A3.407,3.407,0,1,1,7.732,5.792,3.4,3.4,0,0,1,11.139,2.385Zm.42,4.29a.449.449,0,0,0-.1-.314.943.943,0,0,0-.348-.214c-.167-.067-.321-.134-.46-.207a1.871,1.871,0,0,1-.368-.241,1,1,0,0,1-.234-.321,1.093,1.093,0,0,1-.08-.44.936.936,0,0,1,.288-.709,1.279,1.279,0,0,1,.776-.328V3.514h.408v.4a1.18,1.18,0,0,1,.736.381,1.164,1.164,0,0,1,.266.8h-.863a.706.706,0,0,0-.1-.408.335.335,0,0,0-.288-.14.313.313,0,0,0-.261.107.445.445,0,0,0-.094.294.4.4,0,0,0,.107.3,1.105,1.105,0,0,0,.341.214c.159.067.308.134.448.207a1.7,1.7,0,0,1,.361.246,1.122,1.122,0,0,1,.241.321.979.979,0,0,1,.087.44.972.972,0,0,1-.274.709,1.219,1.219,0,0,1-.756.321v.361h-.408V7.7a1.326,1.326,0,0,1-.855-.381,1.2,1.2,0,0,1-.3-.848h.863a.652.652,0,0,0,.127.44.461.461,0,0,0,.368.154.371.371,0,0,0,.274-.1.377.377,0,0,0,.1-.281V6.675ZM3.723,1.763H18.53a1.714,1.714,0,0,0,1.711,1.711V8.051A1.714,1.714,0,0,0,18.53,9.761H3.723A1.714,1.714,0,0,0,2.012,8.051V3.474A1.714,1.714,0,0,0,3.723,1.763Z" transform="translate(1 6)" fill="#02466a" fill-rule="evenodd"/>
</svg>
