<svg id="icon-24-template" xmlns="http://www.w3.org/2000/svg" width="24" height="24" viewBox="0 0 24 24">
  <rect id="Rectangle_7219" data-name="Rectangle 7219" width="24" height="24" fill="rgba(255,255,255,0)"/>
  <path id="web-page-icon" d="M1.518,0H20.895a1.521,1.521,0,0,1,1.518,1.518V18a1.522,1.522,0,0,1-1.518,1.518H1.518A1.521,1.521,0,0,1,0,18V1.518A1.521,1.521,0,0,1,1.518,0ZM3.048,5.067H19.364a.753.753,0,0,1,.75.75v7.968a.754.754,0,0,1-.75.75H3.048a.754.754,0,0,1-.75-.75V5.817A.753.753,0,0,1,3.048,5.067Zm8.157,1.2A3.532,3.532,0,1,1,7.674,9.8a3.532,3.532,0,0,1,3.531-3.532Zm-.2,1.591V6.947a7.1,7.1,0,0,0-.872.913Zm2.925,3.483a3.062,3.062,0,0,0,.4-1.345h-.864a3.127,3.127,0,0,1-.4,1.345Zm-.263.4h-.848a6.347,6.347,0,0,1-1.051,1.139A3.143,3.143,0,0,0,13.67,11.742Zm-3.027,1.139a6.308,6.308,0,0,1-1.051-1.139H8.746a3.127,3.127,0,0,0,1.9,1.139ZM8.479,11.345h.865A3.139,3.139,0,0,1,8.945,10H8.082A3.071,3.071,0,0,0,8.479,11.345ZM8.081,9.6h.873a3.36,3.36,0,0,1,.439-1.345H8.479A3.069,3.069,0,0,0,8.081,9.6ZM8.742,7.86h.9a7.115,7.115,0,0,1,1.03-1.146A3.143,3.143,0,0,0,8.742,7.86Zm3-1.144A6.922,6.922,0,0,1,12.768,7.86h.9A3.138,3.138,0,0,0,11.741,6.716Zm2.192,1.541h-.913A3.367,3.367,0,0,1,13.458,9.6h.872a3.058,3.058,0,0,0-.4-1.345ZM11.4,6.947V7.86h.872A7.069,7.069,0,0,0,11.4,6.947Zm0,1.31V9.6H13.06a3.135,3.135,0,0,0-.5-1.345H11.4ZM11.4,10v1.345H12.61A2.851,2.851,0,0,0,13.069,10Zm0,1.742v.93a6.639,6.639,0,0,0,.923-.93Zm-.4.93v-.93h-.923A6.458,6.458,0,0,0,11.007,12.672Zm0-1.327V10H9.343a2.869,2.869,0,0,0,.46,1.345Zm0-1.742V8.258H9.854a3.134,3.134,0,0,0-.5,1.345ZM21.517,3.666H.965V18.15a.417.417,0,0,0,.419.419H21.09a.419.419,0,0,0,.42-.42V3.666ZM19.45,1.317a.75.75,0,1,1-.749.75.75.75,0,0,1,.749-.75Zm-5.078,0a.75.75,0,1,1-.749.75.75.75,0,0,1,.749-.75Zm2.539,0a.75.75,0,1,1-.749.75.75.75,0,0,1,.749-.75ZM12.2,17.113a.64.64,0,0,1,0-1.276h7.231a.64.64,0,0,1,0,1.276Zm-9.468,0a.641.641,0,0,1,0-1.276h6.7a.641.641,0,0,1,0,1.276Z" transform="translate(0.793 2.24)" fill="#02466a" fill-rule="evenodd"/>
</svg>
