<svg id="icon-24-delete" xmlns="http://www.w3.org/2000/svg" width="24" height="24" viewBox="0 0 24 24">
  <rect id="Rectangle_1505" data-name="Rectangle 1505" width="24" height="24" fill="rgba(255,255,255,0)"/>
  <path id="delete" d="M24.808,22H38.937c.488,0,.662,1.987.662,1.987H24.146S24.32,22,24.808,22Zm5.74-2.208H33.2a1.572,1.572,0,0,1,.883.883,1.572,1.572,0,0,1-.883.883H30.548a1.572,1.572,0,0,1-.883-.883A1.572,1.572,0,0,1,30.548,19.792Zm-4.415,4.857h11.48a.883.883,0,0,1,.883.883l-.883,13.246a.883.883,0,0,1-.883.883H27.016a.883.883,0,0,1-.883-.883L25.25,25.532A.883.883,0,0,1,26.133,24.648Zm1.325,1.766.221,11.48h1.545L29,26.415Zm3.532,0v11.48h1.766V26.415Zm3.753,0-.221,11.48h1.545l.221-11.48Z" transform="translate(-20.146 -17.792)" fill="#ff3838"/>
</svg>
