<svg id="icon-24-timer" xmlns="http://www.w3.org/2000/svg" width="24" height="24" viewBox="0 0 24 24">
  <rect id="Bounding_box" data-name="Bounding box" width="24" height="24" fill="rgba(255,255,255,0)"/>
  <path id="Icon_color" data-name="Icon color" d="M8.993,20c-.081,0-.163,0-.244,0A9.111,9.111,0,0,1,0,11,9,9,0,0,1,7.007,2.23V1a1,1,0,0,1,1-1h2a1,1,0,0,1,1,1V2.23A9.053,9.053,0,0,1,14.615,4l1.112-1.17a.5.5,0,0,1,.711,0l.71.71a.5.5,0,0,1,0,.7l-1.13,1.13A9,9,0,0,1,8.993,20ZM9.01,4a7,7,0,1,0,7.007,7A7.012,7.012,0,0,0,9.01,4Zm.38,8h-.76a.5.5,0,0,1-.5-.5v-5a.5.5,0,0,1,.5-.5h.76a.5.5,0,0,1,.5.5v5A.5.5,0,0,1,9.39,12Z" transform="translate(3 2)" fill="#1dbbbe"/>
</svg>
