<svg id="icon-24-certificate" xmlns="http://www.w3.org/2000/svg" width="24" height="24" viewBox="0 0 24 24">
  <rect id="Rectangle_7178" data-name="Rectangle 7178" width="24" height="24" fill="rgba(255,255,255,0)"/>
  <g id="Page-1" transform="translate(-2.259 -2.977)">
    <g id="icon-138-certificate" transform="translate(4 6)">
      <path id="certificate" d="M11.694,17.925v1.753H22.806a.858.858,0,0,0,.857-.861V7.716a.854.854,0,0,0-.857-.861H5.712a.858.858,0,0,0-.857.861v11.1a.854.854,0,0,0,.857.861H7.42V17.925a2.992,2.992,0,1,1,4.274,0Zm-3.42.61V21.9l1.282-1.282L10.839,21.9V18.536a3,3,0,0,1-2.565,0Zm-.855,2H5.714A1.712,1.712,0,0,1,4,18.823V7.71A1.709,1.709,0,0,1,5.714,6H22.8a1.712,1.712,0,0,1,1.714,1.71V18.823a1.709,1.709,0,0,1-1.714,1.71H11.694v3.42L9.557,21.816,7.42,23.953v-3.42ZM6.565,10.274v.855H21.953v-.855Zm7.694,2.565v.855h7.694v-.855ZM16.823,15.4v.855h5.129V15.4ZM9.557,17.969A2.137,2.137,0,1,0,7.42,15.831a2.137,2.137,0,0,0,2.137,2.137Z" transform="translate(-4 -6)" fill="#1dbbbe" stroke="#1dbbbe" stroke-width="1" fill-rule="evenodd"/>
    </g>
  </g>
</svg>
