<svg id="icon-32-_profits" data-name="icon-32- profits" xmlns="http://www.w3.org/2000/svg" width="32" height="32" viewBox="0 0 32 32">
  <rect id="Rectangle_7058" data-name="Rectangle 7058" width="32" height="32" fill="rgba(255,255,255,0)"/>
  <g id="Group_490" data-name="Group 490" transform="translate(3.562 2.57)">
    <path id="Path_641" data-name="Path 641" d="M141.757,94.482q0-4.376,0-8.752a.66.66,0,0,0-.649-.658h-8.75a.659.659,0,0,0-.465,1.118l3.449,3.449L129.584,95.4a1.308,1.308,0,0,0,1.858,1.839l5.747-5.748,3.454,3.454a.662.662,0,0,0,1.113-.46Z" transform="translate(-126.259 -85.072)" fill="#fff"/>
    <path id="Path_642" data-name="Path 642" d="M104.157,278.43a1.1,1.1,0,0,1-1.1,1.1H98.734a1.1,1.1,0,0,1-1.1-1.1v-7.443a1.1,1.1,0,0,1,1.1-1.1h4.327a1.1,1.1,0,0,1,1.1,1.1v7.443Z" transform="translate(-97.637 -252.665)" fill="#fff"/>
    <path id="Path_643" data-name="Path 643" d="M201.387,225.869a1.1,1.1,0,0,1-1.1,1.1h-4.327a1.1,1.1,0,0,1-1.1-1.1V213.024a1.1,1.1,0,0,1,1.1-1.1h4.327a1.1,1.1,0,0,1,1.1,1.1v12.845Z" transform="translate(-185.805 -200.104)" fill="#fff"/>
    <path id="Path_644" data-name="Path 644" d="M301.107,173.307a1.1,1.1,0,0,1-1.1,1.1h-4.327a1.1,1.1,0,0,1-1.1-1.1V155.06a1.1,1.1,0,0,1,1.1-1.1h4.327a1.1,1.1,0,0,1,1.1,1.1v18.248Z" transform="translate(-276.231 -147.542)" fill="#fff"/>
  </g>
</svg>
