<svg id="icon-26-gift" xmlns="http://www.w3.org/2000/svg" width="26" height="26" viewBox="0 0 26 26">
  <circle id="Ellipse_215" data-name="Ellipse 215" cx="13" cy="13" r="13" fill="rgba(255,221,0,0.2)"/>
  <g id="Group_119" data-name="Group 119" transform="translate(11221 15444)">
    <rect id="Bounding_box" data-name="Bounding box" width="20" height="20" transform="translate(-11218 -15441)" fill="rgba(255,255,255,0)"/>
    <path id="Icon_color" data-name="Icon color" d="M10.889,14H3.111a1.557,1.557,0,0,1-1.555-1.555V8.555H.778A.779.779,0,0,1,0,7.778V5.445A1.557,1.557,0,0,1,1.555,3.889h.42a3.13,3.13,0,0,1-.42-1.556A2.336,2.336,0,0,1,3.889,0,4.41,4.41,0,0,1,7,1.9,4.411,4.411,0,0,1,10.111,0a2.336,2.336,0,0,1,2.334,2.333,3.109,3.109,0,0,1-.42,1.556h.42A1.557,1.557,0,0,1,14,5.445V7.778a.779.779,0,0,1-.778.778h-.778v3.889A1.557,1.557,0,0,1,10.889,14ZM7.778,8.555v3.889h3.111V8.555H7.778Zm-4.667,0v3.889H6.222V8.555H3.111ZM7.778,5.445V7h4.667V5.445Zm-6.222,0V7H6.222V5.445Zm8.555-3.889A3.243,3.243,0,0,0,7.778,3.889H9.333a1.551,1.551,0,0,0,1.556-1.556A.779.779,0,0,0,10.111,1.555Zm-6.222,0a.779.779,0,0,0-.778.778A1.558,1.558,0,0,0,4.667,3.889H6.222A2.516,2.516,0,0,0,5.375,2.4,2.509,2.509,0,0,0,3.889,1.555Z" transform="translate(-11215 -15438)" fill="#fd0"/>
  </g>
</svg>
