<svg id="icon-24-_chat" data-name="icon-24- chat" xmlns="http://www.w3.org/2000/svg" width="24" height="24" viewBox="0 0 24 24">
  <rect id="Rectangle_1482" data-name="Rectangle 1482" width="24" height="24" fill="rgba(255,255,255,0)"/>
  <path id="Chat_Icon" data-name="Chat Icon" d="M-1231.866,4.363a9.93,9.93,0,0,1-1.634.137,9.108,9.108,0,0,1-4.757-1.276c.128,0,.252.026.381.026,5.2,0,9.53-3.315,10.441-7.674a4.735,4.735,0,0,1,1.433,3.3A4.673,4.673,0,0,1-1227.265,2h.015V7Zm-12.884-6.836A6.09,6.09,0,0,1-1246-6.125c0-3.8,3.637-6.875,8.125-6.875s8.125,3.077,8.125,6.875S-1233.387.75-1237.875.75a9.318,9.318,0,0,1-3.5-.677L-1244.75,2Z" transform="translate(1248 15)" fill="#1dbbbe"/>
</svg>
