<svg id="icon-24-complete_order" data-name="icon-24-complete order" xmlns="http://www.w3.org/2000/svg" width="24" height="24" viewBox="0 0 24 24">
  <rect id="Rectangle_7093" data-name="Rectangle 7093" width="24" height="24" fill="rgba(255,255,255,0)"/>
  <path id="right-files-icon" d="M9.868,10.974h5.84a1.416,1.416,0,0,1,1.416,1.416v5.531a1.416,1.416,0,0,1-1.416,1.416H9.868a1.416,1.416,0,0,1-1.416-1.416V12.386A1.416,1.416,0,0,1,9.868,10.97Zm3.776-5.23h1.24a1.073,1.073,0,0,1,.768.315,1.087,1.087,0,0,1,.315.768V9.473h-.944V6.832a.151.151,0,0,0-.156-.154H13.649V9.472h-.993V5.507H8.529a.5.5,0,0,1-.505-.5V.99H.994V16.012H6.885v.993H2.576v1.246a.157.157,0,0,0,.157.157H6.882v.933H2.736a1.1,1.1,0,0,1-1.089-1.09v-1.24H.891a.891.891,0,0,1-.629-.26A.881.881,0,0,1,0,16.123V.889A.889.889,0,0,1,.891,0H8.529A.486.486,0,0,1,8.91.183l4.379,4.248a.5.5,0,0,1,.36.472v.832Zm-10.5,4.78a.336.336,0,0,0,0,.67H6.876v-.67Zm0,2.4a.336.336,0,0,0,0,.67H6.876v-.67Zm0-7.2a.335.335,0,0,0,0,.67H6.591a.336.336,0,0,0,0-.67Zm0-2.4a.315.315,0,0,0-.3.335.315.315,0,0,0,.3.335H5.035a.315.315,0,0,0,.3-.335.315.315,0,0,0-.3-.335Zm0,4.8a.323.323,0,0,0-.315.337.315.315,0,0,0,.315.335H8.968a.323.323,0,0,0,.315-.335.315.315,0,0,0-.315-.337ZM9.031,1.74,12,4.514H9.023V1.74Zm2.442,12.688.744.7,1.776-1.8c.157-.157.256-.29.452-.09l.629.647c.208.2.2.324,0,.516l-2.5,2.459c-.412.4-.341.43-.758.014l-1.416-1.4a.183.183,0,0,1,.016-.285l.733-.76c.112-.115.2-.107.315,0Z" transform="translate(3.438 2.328)" fill="#02466a" fill-rule="evenodd"/>
</svg>
