<svg id="icon-24-format_text_center" data-name="icon-24-format text center" xmlns="http://www.w3.org/2000/svg" width="24" height="24" viewBox="0 0 24 24">
  <rect id="Bounding_box" data-name="Bounding box" width="24" height="24" fill="rgba(255,255,255,0)"/>
  <path id="Icon_color" data-name="Icon color" d="M17.5,14H.5a.5.5,0,0,1-.5-.5v-1A.5.5,0,0,1,.5,12h17a.5.5,0,0,1,.5.5v1A.5.5,0,0,1,17.5,14Zm0-6H.5A.5.5,0,0,1,0,7.5v-1A.5.5,0,0,1,.5,6h17a.5.5,0,0,1,.5.5v1A.5.5,0,0,1,17.5,8Zm0-6H.5A.5.5,0,0,1,0,1.5V.5A.5.5,0,0,1,.5,0h17a.5.5,0,0,1,.5.5v1A.5.5,0,0,1,17.5,2Z" transform="translate(3 5)"/>
</svg>
