<svg id="list_email" data-name="list email" xmlns="http://www.w3.org/2000/svg" width="24" height="24" viewBox="0 0 24 24">
  <g id="icon-24-email">
    <rect id="Bounding_box" data-name="Bounding box" width="24" height="24" fill="rgba(255,255,255,0)"/>
    <path id="Icon_color" data-name="Icon color" d="M18,16H2a2,2,0,0,1-2-2V2A2,2,0,0,1,2,0H18a2,2,0,0,1,2,2V14A2,2,0,0,1,18,16ZM2,4.9V7l6.35,4.45a2.878,2.878,0,0,0,3.3,0L18,7V4.9L10.65,10.05a1.141,1.141,0,0,1-1.3,0Z" transform="translate(2 4)" fill="#1dbbbe"/>
  </g>
</svg>
