<svg xmlns="http://www.w3.org/2000/svg" width="35" height="33.801" viewBox="0 0 35 33.801">
  <g id="new-svgrepo-com" transform="translate(0.444)">
    <path id="Path_590" data-name="Path 590" d="M33.856,16.063a1.07,1.07,0,0,0-.833-1.055l-3.108-.777,2.331-2.22a1.085,1.085,0,0,0,.167-1.332L30.748,7.849a1.083,1.083,0,0,0-1.221-.5l-3.108.888.888-3.108a1.053,1.053,0,0,0-.5-1.221L23.977,2.243a1.169,1.169,0,0,0-1.332.167l-2.22,2.331-.777-3.108A1.07,1.07,0,0,0,18.593.8h-3.33a1.07,1.07,0,0,0-1.055.833l-.777,3.108L11.211,2.41a1.085,1.085,0,0,0-1.332-.167L7.049,3.908a1.083,1.083,0,0,0-.5,1.221l.888,3.108L4.329,7.349a1.053,1.053,0,0,0-1.221.5L1.443,10.679a1.169,1.169,0,0,0,.167,1.332l2.331,2.22-3.108.777A1.07,1.07,0,0,0,0,16.063v3.275a1.07,1.07,0,0,0,.833,1.055l3.108.777L1.61,23.389a1.085,1.085,0,0,0-.167,1.332l1.665,2.831a1.083,1.083,0,0,0,1.221.5l3.108-.888-.888,3.108a1.053,1.053,0,0,0,.5,1.221l2.831,1.665a1.169,1.169,0,0,0,1.332-.167l2.22-2.331.777,3.108a1.07,1.07,0,0,0,1.055.833h3.33a1.07,1.07,0,0,0,1.055-.833l.777-3.108,2.22,2.331a1.085,1.085,0,0,0,1.332.167l2.831-1.665a1.083,1.083,0,0,0,.5-1.221l-.888-3.108,3.108.888a1.053,1.053,0,0,0,1.221-.5l1.665-2.831a1.169,1.169,0,0,0-.167-1.332l-2.331-2.22,3.108-.777a1.07,1.07,0,0,0,.833-1.055Z" transform="translate(0 -0.801)" fill="#ff7300"/>
    <g id="Group_388" data-name="Group 388" transform="translate(6.516)">
      <path id="Path_591" data-name="Path 591" d="M94.841,8.237h0l19.037,19.037h0l3.108.888a1.053,1.053,0,0,0,1.221-.5l1.665-2.831a1.17,1.17,0,0,0-.167-1.332l-2.331-2.22,3.108-.777a1.07,1.07,0,0,0,.833-1.055V16.174a1.07,1.07,0,0,0-.833-1.055l-3.108-.777,2.331-2.22a1.085,1.085,0,0,0,.167-1.332L118.208,7.96a1.083,1.083,0,0,0-1.221-.5l-3.108.888.888-3.108a1.053,1.053,0,0,0-.5-1.221l-2.831-1.665a1.17,1.17,0,0,0-1.332.167l-2.22,2.331-.833-3.219A1.07,1.07,0,0,0,106,.8h-3.33a1.07,1.07,0,0,0-1.055.833l-.777,3.108L98.615,2.41a1.085,1.085,0,0,0-1.332-.167L94.453,3.908a1.083,1.083,0,0,0-.5,1.221Z" transform="translate(-93.92 -0.8)" fill="#ff3c00"/>
      <path id="Path_592" data-name="Path 592" d="M113.74,205.171l-3.719-6.549-1.221,7.16,12.044,12.044c0-.055,0-.055.056-.111l.777-3.108,2.22,2.331a1.085,1.085,0,0,0,1.332.167l2.831-1.665a1.083,1.083,0,0,0,.5-1.221l-.888-3.108,3.108.888a1.113,1.113,0,0,0,1.221-.5l-15.152-13.1Z" transform="translate(-107.768 -184.691)" fill="#ff3c00"/>
    </g>
    <text id="جديد" transform="translate(33.556 19.303)" fill="#fff" stroke="rgba(0,0,0,0)" stroke-width="1" font-size="17" font-family="Tajawal-Regular, Tajawal" letter-spacing="0.01em"><tspan x="-32.402" y="0">جديد</tspan></text>
  </g>
</svg>
