<svg id="offer-24" xmlns="http://www.w3.org/2000/svg" width="24" height="24" viewBox="0 0 24 24">
  <rect id="Rectangle_7142" data-name="Rectangle 7142" width="24" height="24" fill="rgba(255,255,255,0)"/>
  <g id="Group_784" data-name="Group 784" transform="translate(-4672 6904)">
    <g id="Group_783" data-name="Group 783" transform="translate(4674 -6899)">
      <path id="Path_818" data-name="Path 818" d="M22.431,12.6V10c0-.6-.3-1-.747-1H16.975a1.446,1.446,0,0,1-1.27,1,1.446,1.446,0,0,1-1.27-1H3.747C3.3,9,3,9.4,3,10v2.6A4.365,4.365,0,0,1,4.495,16,4.217,4.217,0,0,1,3,19.4V22c0,.6.3,1,.747,1H14.434a1.446,1.446,0,0,1,1.27-1,1.446,1.446,0,0,1,1.27,1h4.708c.448,0,.747-.4.747-1V19.4A4.365,4.365,0,0,1,20.936,16,4.217,4.217,0,0,1,22.431,12.6Z" transform="translate(-3 -9)" fill="none" stroke="#000" stroke-linecap="round" stroke-linejoin="round" stroke-miterlimit="10" stroke-width="2"/>
      <line id="Line_35" data-name="Line 35" y2="1" transform="translate(13 4)" fill="none" stroke="#000" stroke-linecap="round" stroke-linejoin="round" stroke-miterlimit="10" stroke-width="2"/>
      <line id="Line_36" data-name="Line 36" y1="1" transform="translate(13 9)" fill="none" stroke="#000" stroke-linecap="round" stroke-linejoin="round" stroke-miterlimit="10" stroke-width="2"/>
    </g>
  </g>
</svg>
