<svg id="raited" xmlns="http://www.w3.org/2000/svg" width="72" height="26" viewBox="0 0 72 26">
  <rect id="Rectangle_1492" data-name="Rectangle 1492" width="72" height="26" rx="8" fill="#a4a1fb"/>
  <text id="_4.8" data-name="4.8" transform="translate(40 18)" fill="#fafafa" stroke="rgba(0,0,0,0)" stroke-width="1" font-size="16" font-family="Tajawal-Regular, Tajawal" letter-spacing="0.01em"><tspan x="0" y="0">4.8</tspan></text>
  <g id="icon-20-star" transform="translate(10 3)">
    <rect id="Bounding_box" data-name="Bounding box" width="20" height="20" fill="rgba(255,255,255,0)"/>
    <path id="Icon_color" data-name="Icon color" d="M.161,6.2a.384.384,0,0,1-.144-.426l.064-.2A.391.391,0,0,1,.433,5.3L5.54,4.9,7.5.253A.408.408,0,0,1,7.906,0h.208a.392.392,0,0,1,.376.252L10.455,4.9l5.107.4a.391.391,0,0,1,.352.276l.064.2a.383.383,0,0,1-.12.426L12.006,9.466l1.183,4.9a.4.4,0,0,1-.152.418l-.232.126a.4.4,0,0,1-.448,0l-4.348-2.6L3.638,14.932a.4.4,0,0,1-.448,0l-.176-.118a.4.4,0,0,1-.152-.418l1.151-4.93Z" transform="translate(2 2)" fill="#fafafa"/>
  </g>
</svg>
