<svg id="time-countdown" xmlns="http://www.w3.org/2000/svg" width="16" height="16" viewBox="0 0 16 16">
  <path id="time-countdown-2" data-name="time-countdown" d="M0,9A6.957,6.957,0,0,1,7,2a6.844,6.844,0,0,1,4.2,1.4l.9-.9-.8-.8a.966.966,0,0,1,0-1.4.968.968,0,0,1,1.4,0l3,3a.967.967,0,0,1,0,1.4.968.968,0,0,1-1.4,0l-.8-.8-.9.9A6.848,6.848,0,0,1,14,9a6.957,6.957,0,0,1-7,7A6.957,6.957,0,0,1,0,9ZM2,9a4.952,4.952,0,0,0,5,5,4.953,4.953,0,0,0,5-5A4.951,4.951,0,0,0,7,4,4.95,4.95,0,0,0,2,9Zm4,1V6H8V8h2v2Z" transform="translate(0 0)" fill="#b6be34"/>
</svg>
