<svg id="type_support" data-name="type support" xmlns="http://www.w3.org/2000/svg" width="24" height="24" viewBox="0 0 24 24">
  <rect id="Rectangle_1594" data-name="Rectangle 1594" width="24" height="24" fill="rgba(255,255,255,0)"/>
  <g id="telemarketer-support-svgrepo-com" transform="translate(-22.6 2)">
    <g id="Group_375" data-name="Group 375" transform="translate(25.6 14.647)">
      <g id="Group_374" data-name="Group 374">
        <path id="Path_585" data-name="Path 585" d="M40.36,375.574c-.532-.233-1.136-.5-1.822-.81l-.031-.014-.024.024a6.413,6.413,0,0,1-.757.628l-.07.049.078.036c.862.4,1.61.729,2.242,1.006,2.345,1.023,2.641,1.223,2.641,1.781a.9.9,0,0,1-.846.846H27.44a.9.9,0,0,1-.846-.846c0-.558.3-.757,2.641-1.781.632-.276,1.379-.6,2.242-1.006l.078-.036-.07-.049a6.471,6.471,0,0,1-.757-.628l-.024-.024-.031.014c-.687.314-1.29.578-1.822.81-2.365,1.033-3.25,1.419-3.25,2.7a1.913,1.913,0,0,0,1.84,1.84H41.77a1.913,1.913,0,0,0,1.84-1.84C43.611,376.994,42.726,376.607,40.36,375.574Z" transform="translate(-25.6 -374.75)"/>
      </g>
    </g>
    <g id="Group_377" data-name="Group 377" transform="translate(26.601)">
      <g id="Group_376" data-name="Group 376">
        <path id="Path_586" data-name="Path 586" d="M66.209,6h-1A6,6,0,1,0,53.2,6h-1a1,1,0,0,0-1,1v3a1,1,0,0,0,1,1h1a.989.989,0,0,0,.737-.337,1.571,1.571,0,0,0,.093.128c.693,2.742,2.749,4.736,5.173,4.736,2.482,0,4.575-2.094,5.216-4.939a.982.982,0,0,0,.787.411h1a1,1,0,0,0,1-1V7A1,1,0,0,0,66.209,6Zm-13.008,4h-1V7h1Zm6,4.533A4.368,4.368,0,0,1,55.4,11.7a10.577,10.577,0,0,0,3.806.8.5.5,0,1,0,0-1,8.23,8.23,0,0,1-4.264-1.2,7.394,7.394,0,0,1-.164-1.535C54.776,5.585,56.763,3,59.2,3s4.428,2.589,4.428,5.772S61.646,14.539,59.2,14.539ZM64.2,6.123C63.368,3.7,61.443,2,59.2,2s-4.164,1.7-4.991,4.122c0-.041-.012-.079-.012-.119A5,5,0,0,1,64.208,6C64.208,6.044,64.2,6.082,64.2,6.123Zm2.013,3.883h-1V7h1Z" transform="translate(-51.2)"/>
      </g>
    </g>
  </g>
</svg>
